<svg width="288" height="46" viewBox="0 0 288 46" fill="none" xmlns="http://www.w3.org/2000/svg">
<g clip-path="url(#clip0_1_7166)">
<path d="M39.7491 12.8203C43.5332 12.8203 46.6879 14.7531 48.157 16.8418V13.3421H53.9367V39.4522H50.0114C48.9874 39.4522 48.157 38.6284 48.157 37.6096V35.956C46.6879 38.0429 43.5332 39.9742 39.7491 39.9742C32.5525 39.9742 27.0858 33.8658 27.0858 26.398C27.0858 18.9302 32.5525 12.8203 39.7491 12.8203ZM40.8006 18.0432C36.1231 18.0432 32.9699 21.6977 32.9699 26.398C32.9699 31.0968 36.1231 34.7536 40.8006 34.7536C45.4766 34.7536 48.6312 31.0968 48.6312 26.398C48.6312 21.6977 45.4769 18.0432 40.8006 18.0432Z" fill="#77C159"/>
<path d="M60.5038 13.3421H66.2849V16.8928C67.8599 14.2826 70.8565 12.8203 74.2722 12.8203C80.3666 12.8203 84.3087 17.1023 84.3087 23.7348V39.4513H80.382C79.3583 39.4513 78.5276 38.6261 78.5276 37.6087V24.6748C78.5276 20.5499 76.4247 18.0432 73.0641 18.0432C69.2278 18.0432 66.2852 21.0197 66.2852 26.6061V39.4513H62.3567C61.3345 39.4513 60.5038 38.6261 60.5038 37.6087V13.3421V13.3421Z" fill="#77C159"/>
<path d="M101.543 12.8209C105.326 12.8209 108.481 14.7537 109.951 16.8424V0.289062H115.729V39.4528H111.804C110.782 39.4528 109.951 38.6291 109.951 37.6102V35.9566C108.481 38.0436 105.326 39.9749 101.543 39.9749C94.3435 39.9749 88.8788 33.8665 88.8788 26.3986C88.8788 18.9308 94.3437 12.8209 101.543 12.8209ZM102.595 18.0438C97.919 18.0438 94.7658 21.6983 94.7658 26.3986C94.7658 31.0975 97.919 34.7543 102.595 34.7543C107.269 34.7543 110.422 31.0975 110.422 26.3986C110.422 21.6983 107.269 18.0438 102.595 18.0438Z" fill="#77C159"/>
<path d="M122.293 13.339H128.073V17.9865C129.07 15.01 132.013 13.0781 135.01 13.0781C135.743 13.0781 136.482 13.1309 137.269 13.2871V19.1874C136.268 18.8738 135.43 18.7175 134.38 18.7175C131.069 18.7175 128.073 21.4865 128.073 26.7083V39.4483H124.146C123.124 39.4483 122.293 38.6231 122.293 37.6057V13.339H122.293Z" fill="#77C159"/>
<path d="M152.852 39.9742C145.077 39.9742 139.086 33.9679 139.086 26.3994C139.086 18.8273 145.077 12.8203 152.852 12.8203C160.631 12.8203 166.619 18.8258 166.619 26.3994C166.619 33.9679 160.631 39.9742 152.852 39.9742ZM152.852 34.6499C157.477 34.6499 160.735 31.045 160.735 26.3994C160.735 21.7528 157.476 18.1478 152.852 18.1478C148.177 18.1478 144.919 21.7528 144.919 26.3994C144.919 31.045 148.177 34.6499 152.852 34.6499Z" fill="#77C159"/>
<path d="M174.193 7.65308C172.092 7.65308 170.305 5.93163 170.305 3.78816C170.305 1.69946 172.092 -0.0234375 174.193 -0.0234375C176.347 -0.0234375 178.029 1.69975 178.029 3.78816C178.029 5.93163 176.347 7.65308 174.193 7.65308ZM171.305 13.3435H177.083V39.4537H173.158C172.134 39.4537 171.305 38.6267 171.305 37.6111V13.3435Z" fill="#77C159"/>
<path d="M194.497 12.8209C198.281 12.8209 201.435 14.7537 202.907 16.8424V0.289062H208.686V39.4528H204.761C203.735 39.4528 202.907 38.6291 202.907 37.6102V35.9566C201.435 38.0436 198.281 39.9749 194.497 39.9749C187.301 39.9749 181.836 33.8665 181.836 26.3986C181.836 18.9308 187.301 12.8209 194.497 12.8209ZM195.549 18.0438C190.875 18.0438 187.722 21.6983 187.722 26.3986C187.722 31.0975 190.875 34.7543 195.549 34.7543C200.227 34.7543 203.38 31.0975 203.38 26.3986C203.379 21.6983 200.227 18.0438 195.549 18.0438Z" fill="#77C159"/>
<path opacity="0.8" d="M218.737 16.6715H213.082V13.2068H218.737V5.90625H222.435V13.2068H230.151V16.6715H222.435V31.8486C222.435 35.0509 223.863 36.3109 226.821 36.3109C227.877 36.3109 229.305 36.1005 230.151 35.7344V39.0419C228.933 39.515 227.667 39.7251 226.24 39.7251C221.749 39.7251 218.737 37.15 218.737 32.1613V16.6715V16.6715Z" fill="white"/>
<path opacity="0.8" d="M260.217 13.1953L247.854 39.4521H244.947L232.582 13.1953H236.704L246.374 34.0426L256.043 13.1953H260.217Z" fill="white"/>
</g>
<defs>
<clipPath id="clip0_1_7166">
<rect width="233.333" height="40" fill="white" transform="translate(26.9999)"/>
</clipPath>
</defs>
</svg>
