<svg width="176" height="30" viewBox="0 0 176 30" fill="none" xmlns="http://www.w3.org/2000/svg">
<g id="Android_tv_logo 1" clip-path="url(#clip0_1_11727)">
<g id="Group">
<path id="Vector" d="M10.2286 9.60895C13.0667 9.60895 15.4327 11.0585 16.5345 12.625V10.0003H20.8693V29.5829H17.9253C17.1573 29.5829 16.5345 28.965 16.5345 28.2009V26.9607C15.4327 28.5259 13.0667 29.9744 10.2286 29.9744C4.83117 29.9744 0.73114 25.3931 0.73114 19.7922C0.73114 14.1913 4.83117 9.60895 10.2286 9.60895ZM11.0172 13.5261C7.50911 13.5261 5.1442 16.267 5.1442 19.7922C5.1442 23.3163 7.50911 26.0589 11.0172 26.0589C14.5242 26.0589 16.8902 23.3163 16.8902 19.7922C16.8902 16.267 14.5244 13.5261 11.0172 13.5261Z" fill="#77C159"/>
<path id="Vector_2" d="M25.7927 10.0012H30.1285V12.6642C31.3098 10.7066 33.5572 9.60986 36.119 9.60986C40.6898 9.60986 43.6464 12.8214 43.6464 17.7957V29.5831H40.7014C39.9335 29.5831 39.3105 28.9642 39.3105 28.2012V18.5007C39.3105 15.407 37.7334 13.527 35.2129 13.527C32.3357 13.527 30.1287 15.7594 30.1287 19.9492V29.5831H27.1824C26.4157 29.5831 25.7927 28.9642 25.7927 28.2012V10.0012Z" fill="#77C159"/>
<path id="Vector_3" d="M56.5732 9.60887C59.4102 9.60887 61.7762 11.0584 62.8792 12.625V0.209961H67.2128V29.5828H64.2689C63.5022 29.5828 62.8792 28.965 62.8792 28.2008V26.9606C61.7762 28.5258 59.4102 29.9743 56.5732 29.9743C51.1734 29.9743 47.0749 25.393 47.0749 19.7921C47.0749 14.1913 51.1736 9.60887 56.5732 9.60887ZM57.3621 13.526C53.8551 13.526 51.4901 16.2669 51.4901 19.7921C51.4901 23.3163 53.8551 26.0589 57.3621 26.0589C60.8678 26.0589 63.2327 23.3163 63.2327 19.7921C63.2327 16.2669 60.8678 13.526 57.3621 13.526Z" fill="#77C159"/>
<path id="Vector_4" d="M72.1374 10.0009H76.4721V13.4865C77.2205 11.2542 79.4277 9.80524 81.6749 9.80524C82.2253 9.80524 82.7789 9.8448 83.3698 9.96198V14.3872C82.619 14.152 81.9905 14.0348 81.203 14.0348C78.7196 14.0348 76.4724 16.1115 76.4724 20.0278V29.5828H73.5273C72.7606 29.5828 72.1376 28.9639 72.1376 28.2009V10.0009H72.1374Z" fill="#77C159"/>
<path id="Vector_5" d="M95.058 29.9744C89.2265 29.9744 84.733 25.4696 84.733 19.7933C84.733 14.1142 89.2265 9.60895 95.058 9.60895C100.892 9.60895 105.383 14.1131 105.383 19.7933C105.383 25.4696 100.892 29.9744 95.058 29.9744ZM95.058 25.9811C98.526 25.9811 100.97 23.2774 100.97 19.7933C100.97 16.3083 98.5258 13.6046 95.058 13.6046C91.5512 13.6046 89.108 16.3083 89.108 19.7933C89.108 23.2774 91.5512 25.9811 95.058 25.9811Z" fill="#77C159"/>
<path id="Vector_6" d="M111.064 5.73249C109.487 5.73249 108.147 4.4414 108.147 2.83379C108.147 1.26727 109.487 -0.0249023 111.064 -0.0249023C112.679 -0.0249023 113.941 1.26749 113.941 2.83379C113.941 4.4414 112.679 5.73249 111.064 5.73249ZM108.898 10.0003H113.231V29.5829H110.287C109.519 29.5829 108.898 28.9627 108.898 28.201V10.0003Z" fill="#77C159"/>
<path id="Vector_7" d="M126.292 9.60887C129.13 9.60887 131.495 11.0584 132.599 12.625V0.209961H136.933V29.5828H133.99C133.22 29.5828 132.599 28.965 132.599 28.2008V26.9606C131.495 28.5258 129.13 29.9743 126.292 29.9743C120.894 29.9743 116.796 25.393 116.796 19.7921C116.796 14.1913 120.894 9.60887 126.292 9.60887ZM127.081 13.526C123.575 13.526 121.21 16.2669 121.21 19.7921C121.21 23.3163 123.575 26.0589 127.081 26.0589C130.589 26.0589 132.954 23.3163 132.954 19.7921C132.953 16.2669 130.589 13.526 127.081 13.526Z" fill="#77C159"/>
<path id="Vector_8" opacity="0.8" d="M144.47 12.4919H140.228V9.8934H144.47V4.41797H147.243V9.8934H153.03V12.4919H147.243V23.8747C147.243 26.2764 148.314 27.2214 150.533 27.2214C151.325 27.2214 152.396 27.0636 153.03 26.7891V29.2697C152.117 29.6245 151.167 29.7821 150.096 29.7821C146.729 29.7821 144.47 27.8508 144.47 24.1093V12.4919Z" fill="white"/>
<path id="Vector_9" opacity="0.8" d="M175.58 9.89258L166.307 29.5852H164.127L154.853 9.89258H157.945L165.197 25.528L172.449 9.89258H175.58Z" fill="white"/>
</g>
</g>
<defs>
<clipPath id="clip0_1_11727">
<rect width="175" height="30" fill="white" transform="translate(0.666687)"/>
</clipPath>
</defs>
</svg>
