<svg width="1149" height="629" viewBox="0 0 1149 629" fill="none" xmlns="http://www.w3.org/2000/svg">
<path fill-rule="evenodd" clip-rule="evenodd" d="M17.3283 62.3334C9.23048 62.3334 2.66589 68.8998 2.66589 77V611.667C2.66589 619.767 9.2305 626.333 17.3283 626.333H1131.67C1139.77 626.333 1146.33 619.767 1146.33 611.667V77C1146.33 68.8998 1139.77 62.3334 1131.67 62.3334H635.816V59.6667H1131.67C1141.24 59.6667 1149 67.4271 1149 77V611.667C1149 621.24 1141.24 629 1131.67 629H17.3283C7.75817 629 0 621.24 0 611.667V77C0 67.4271 7.75815 59.6667 17.3283 59.6667H513.185V62.3334H17.3283Z" fill="#F82225"/>
<path fill-rule="evenodd" clip-rule="evenodd" d="M512.185 62.6667C512.185 28.0568 540.234 0 574.834 0C609.434 0 637.482 28.0568 637.482 62.6667H634.816C634.816 29.5296 607.961 2.66667 574.834 2.66667C541.706 2.66667 514.851 29.5296 514.851 62.6667H512.185Z" fill="#F82225"/>
</svg>
