<svg width="341" height="228" viewBox="0 0 341 228" fill="none" xmlns="http://www.w3.org/2000/svg">
<g opacity="0.9">
<path d="M43.3372 66.7922C29.9384 66.7922 17.0744 66.7922 10.125 66.7922C7.17944 66.7922 4.80078 64.4044 4.80078 61.4589V19.3255C4.80078 16.38 7.1553 13.9922 10.1008 13.9922C24.3269 13.9922 63.4627 13.9922 81.0845 13.9922C84.03 13.9922 86.4008 16.38 86.4008 19.3255V33.9922" stroke="white" stroke-width="2.66667"/>
<path d="M27.9162 78.0246C27.2403 78.3168 26.9292 79.1017 27.2215 79.7776C27.5137 80.4535 28.2985 80.7645 28.9744 80.4723L27.9162 78.0246ZM43.129 74.0651C40.0138 74.0651 36.1714 75.088 33.2063 76.0559C31.7027 76.5468 30.3847 77.0371 29.4423 77.4047C28.9707 77.5887 28.5921 77.7425 28.33 77.8507C28.199 77.9049 28.097 77.9477 28.0271 77.9773C27.9921 77.9921 27.9651 78.0036 27.9465 78.0116C27.9372 78.0155 27.93 78.0186 27.9249 78.0208C27.9224 78.0219 27.9204 78.0228 27.9189 78.0234C27.9182 78.0237 27.9176 78.024 27.9172 78.0242C27.9169 78.0243 27.9167 78.0244 27.9166 78.0244C27.9164 78.0245 27.9162 78.0246 28.4453 79.2484C28.9744 80.4723 28.9743 80.4723 28.9743 80.4724C28.9743 80.4724 28.9742 80.4724 28.9743 80.4724C28.9744 80.4723 28.9746 80.4722 28.9749 80.4721C28.9756 80.4718 28.9769 80.4712 28.9786 80.4705C28.9822 80.469 28.9878 80.4665 28.9955 80.4632C29.011 80.4566 29.0347 80.4465 29.0664 80.4331C29.1297 80.4063 29.2247 80.3664 29.3484 80.3153C29.5959 80.213 29.9581 80.066 30.4116 79.889C31.3194 79.5348 32.5889 79.0626 34.0338 78.591C36.9659 77.6338 40.4653 76.7318 43.129 76.7318V74.0651Z" fill="white"/>
<path d="M73.3359 79.9922H47.1953C44.9862 79.9922 43.1953 78.2013 43.1953 75.9922V29.9922C43.1953 27.783 44.9862 25.9922 47.1953 25.9922H82.3953C84.6044 25.9922 86.3953 27.783 86.3953 29.9922V38.6589" stroke="white" stroke-width="2.66667"/>
<path d="M61.5 70.1406H65.7" stroke="white" stroke-width="2.66667" stroke-linecap="round"/>
<path d="M71.6289 42.7031C71.6289 40.494 73.4198 38.7031 75.6289 38.7031H88.5356C90.7447 38.7031 92.5356 40.494 92.5356 42.7031V76.5031C92.5356 78.7123 90.7447 80.5031 88.5356 80.5031H75.6289C73.4198 80.5031 71.6289 78.7123 71.6289 76.5031V42.7031Z" stroke="white" stroke-width="2.66667"/>
<path d="M80.5859 72.8906H83.5726" stroke="white" stroke-width="2.66667" stroke-linecap="round"/>
</g>
<path d="M7.61932 149.239C6.48295 149.239 5.46591 149.026 4.56818 148.599C3.67045 148.168 2.95739 147.577 2.42898 146.827C1.90625 146.077 1.62784 145.219 1.59375 144.253H4.66193C4.71875 144.969 5.02841 145.554 5.59091 146.009C6.15341 146.457 6.82955 146.682 7.61932 146.682C8.23864 146.682 8.78977 146.54 9.27273 146.256C9.75568 145.972 10.1364 145.577 10.4148 145.071C10.6932 144.565 10.8295 143.989 10.8239 143.341C10.8295 142.682 10.6903 142.097 10.4062 141.585C10.1222 141.074 9.73295 140.673 9.23864 140.384C8.74432 140.088 8.17614 139.94 7.53409 139.94C7.01136 139.935 6.49716 140.031 5.99148 140.23C5.4858 140.429 5.08523 140.69 4.78977 141.014L1.93466 140.545L2.84659 131.545H12.9716V134.188H5.46307L4.96023 138.815H5.0625C5.38636 138.435 5.84375 138.119 6.43466 137.869C7.02557 137.614 7.6733 137.486 8.37784 137.486C9.43466 137.486 10.3778 137.736 11.2074 138.236C12.0369 138.73 12.6903 139.412 13.1676 140.281C13.6449 141.151 13.8835 142.145 13.8835 143.264C13.8835 144.418 13.6165 145.446 13.0824 146.349C12.554 147.247 11.8182 147.955 10.875 148.472C9.9375 148.983 8.85227 149.239 7.61932 149.239ZM24.6435 153.909C24.223 153.909 23.8338 153.875 23.4759 153.807C23.1236 153.744 22.8423 153.67 22.6321 153.585L23.348 151.182C23.7969 151.313 24.1974 151.375 24.5497 151.369C24.902 151.364 25.2116 151.253 25.4787 151.037C25.7514 150.827 25.9815 150.474 26.169 149.98L26.4332 149.273L21.6861 135.909H24.9588L27.9759 145.795H28.1122L31.1378 135.909H34.419L29.1776 150.585C28.9332 151.278 28.6094 151.872 28.206 152.366C27.8026 152.866 27.3082 153.247 26.723 153.509C26.1435 153.776 25.4503 153.909 24.6435 153.909ZM41.8189 149.256C40.5121 149.256 39.3899 148.969 38.4524 148.395C37.5206 147.821 36.8018 147.028 36.2962 146.017C35.7962 145 35.5462 143.83 35.5462 142.506C35.5462 141.176 35.8018 140.003 36.3132 138.986C36.8246 137.963 37.5462 137.168 38.478 136.599C39.4155 136.026 40.5234 135.739 41.8018 135.739C42.8643 135.739 43.8047 135.935 44.6229 136.327C45.4467 136.713 46.103 137.261 46.5916 137.972C47.0803 138.676 47.3587 139.5 47.4268 140.443H44.478C44.3587 139.812 44.0746 139.287 43.6257 138.866C43.1825 138.44 42.5888 138.227 41.8445 138.227C41.2138 138.227 40.6598 138.398 40.1825 138.739C39.7053 139.074 39.3331 139.557 39.0661 140.188C38.8047 140.818 38.674 141.574 38.674 142.455C38.674 143.347 38.8047 144.114 39.0661 144.756C39.3274 145.392 39.6939 145.884 40.1655 146.23C40.6428 146.571 41.2024 146.741 41.8445 146.741C42.299 146.741 42.7053 146.656 43.0632 146.486C43.4268 146.31 43.7308 146.057 43.9751 145.727C44.2195 145.398 44.3871 144.997 44.478 144.526H47.4268C47.353 145.452 47.0803 146.273 46.6087 146.989C46.1371 147.699 45.495 148.256 44.6825 148.659C43.87 149.057 42.9155 149.256 41.8189 149.256ZM49.0099 138.44V135.909H60.4645V138.44H56.2287V149H53.2457V138.44H49.0099ZM62.9212 153.909V135.909H65.9553V138.074H66.1342C66.2933 137.756 66.5178 137.418 66.8075 137.06C67.0973 136.696 67.4893 136.386 67.9837 136.131C68.478 135.869 69.1087 135.739 69.8757 135.739C70.8871 135.739 71.799 135.997 72.6115 136.514C73.4297 137.026 74.0774 137.784 74.5547 138.79C75.0376 139.79 75.2791 141.017 75.2791 142.472C75.2791 143.909 75.0433 145.131 74.5717 146.136C74.1001 147.142 73.4581 147.909 72.6456 148.438C71.8331 148.966 70.9126 149.23 69.8842 149.23C69.1342 149.23 68.5121 149.105 68.0178 148.855C67.5234 148.605 67.1257 148.304 66.8246 147.952C66.5291 147.594 66.299 147.256 66.1342 146.938H66.0064V153.909H62.9212ZM65.9467 142.455C65.9467 143.301 66.0661 144.043 66.3047 144.679C66.549 145.315 66.8984 145.812 67.353 146.17C67.8132 146.523 68.37 146.699 69.0234 146.699C69.7053 146.699 70.2763 146.517 70.7365 146.153C71.1967 145.784 71.5433 145.281 71.7763 144.645C72.0149 144.003 72.1342 143.273 72.1342 142.455C72.1342 141.642 72.0178 140.92 71.7848 140.29C71.5518 139.659 71.2053 139.165 70.745 138.807C70.2848 138.449 69.7109 138.27 69.0234 138.27C68.3643 138.27 67.8047 138.443 67.3445 138.79C66.8842 139.136 66.5348 139.622 66.2962 140.247C66.0632 140.872 65.9467 141.608 65.9467 142.455ZM83.6314 149.256C82.353 149.256 81.245 148.974 80.3075 148.412C79.37 147.849 78.6428 147.062 78.1257 146.051C77.6143 145.04 77.3587 143.858 77.3587 142.506C77.3587 141.153 77.6143 139.969 78.1257 138.952C78.6428 137.935 79.37 137.145 80.3075 136.582C81.245 136.02 82.353 135.739 83.6314 135.739C84.9098 135.739 86.0178 136.02 86.9553 136.582C87.8928 137.145 88.6172 137.935 89.1286 138.952C89.6456 139.969 89.9041 141.153 89.9041 142.506C89.9041 143.858 89.6456 145.04 89.1286 146.051C88.6172 147.062 87.8928 147.849 86.9553 148.412C86.0178 148.974 84.9098 149.256 83.6314 149.256ZM83.6484 146.784C84.3416 146.784 84.9212 146.594 85.3871 146.213C85.853 145.827 86.1996 145.31 86.4268 144.662C86.6598 144.014 86.7763 143.293 86.7763 142.497C86.7763 141.696 86.6598 140.972 86.4268 140.324C86.1996 139.67 85.853 139.151 85.3871 138.764C84.9212 138.378 84.3416 138.185 83.6484 138.185C82.9382 138.185 82.3473 138.378 81.8757 138.764C81.4098 139.151 81.0604 139.67 80.8274 140.324C80.6001 140.972 80.4865 141.696 80.4865 142.497C80.4865 143.293 80.6001 144.014 80.8274 144.662C81.0604 145.31 81.4098 145.827 81.8757 146.213C82.3473 146.594 82.9382 146.784 83.6484 146.784ZM95.4972 144.824L100.739 135.909H103.909V149H100.926V140.077L95.7017 149H92.5227V135.909H95.4972V144.824ZM99.8949 131.409H102.205C102.205 132.403 101.844 133.21 101.122 133.83C100.406 134.443 99.4347 134.75 98.2074 134.75C96.9915 134.75 96.0227 134.443 95.3011 133.83C94.5852 133.21 94.2301 132.403 94.2358 131.409H96.5284C96.5284 131.818 96.6534 132.185 96.9034 132.509C97.1591 132.827 97.5938 132.986 98.2074 132.986C98.8097 132.986 99.2386 132.827 99.4943 132.509C99.7557 132.19 99.8892 131.824 99.8949 131.409ZM112.788 149.256C111.481 149.256 110.359 148.969 109.421 148.395C108.489 147.821 107.771 147.028 107.265 146.017C106.765 145 106.515 143.83 106.515 142.506C106.515 141.176 106.771 140.003 107.282 138.986C107.793 137.963 108.515 137.168 109.447 136.599C110.384 136.026 111.492 135.739 112.771 135.739C113.833 135.739 114.773 135.935 115.592 136.327C116.415 136.713 117.072 137.261 117.56 137.972C118.049 138.676 118.327 139.5 118.396 140.443H115.447C115.327 139.812 115.043 139.287 114.594 138.866C114.151 138.44 113.558 138.227 112.813 138.227C112.183 138.227 111.629 138.398 111.151 138.739C110.674 139.074 110.302 139.557 110.035 140.188C109.773 140.818 109.643 141.574 109.643 142.455C109.643 143.347 109.773 144.114 110.035 144.756C110.296 145.392 110.663 145.884 111.134 146.23C111.612 146.571 112.171 146.741 112.813 146.741C113.268 146.741 113.674 146.656 114.032 146.486C114.396 146.31 114.7 146.057 114.944 145.727C115.188 145.398 115.356 144.997 115.447 144.526H118.396C118.322 145.452 118.049 146.273 117.577 146.989C117.106 147.699 116.464 148.256 115.651 148.659C114.839 149.057 113.884 149.256 112.788 149.256ZM119.979 138.44V135.909H131.433V138.44H127.197V149H124.214V138.44H119.979ZM133.89 149V135.909H139.387C140.938 135.909 142.163 136.219 143.06 136.838C143.964 137.457 144.415 138.321 144.415 139.429C144.415 140.162 144.16 140.761 143.648 141.227C143.143 141.687 142.452 141.997 141.577 142.156C142.265 142.213 142.867 142.386 143.384 142.676C143.907 142.966 144.316 143.347 144.612 143.818C144.907 144.29 145.055 144.832 145.055 145.446C145.055 146.168 144.864 146.795 144.484 147.33C144.109 147.858 143.56 148.27 142.839 148.565C142.123 148.855 141.254 149 140.231 149H133.89ZM136.779 146.571H140.231C140.799 146.571 141.245 146.437 141.569 146.17C141.893 145.898 142.055 145.528 142.055 145.062C142.055 144.523 141.893 144.099 141.569 143.793C141.245 143.48 140.799 143.324 140.231 143.324H136.779V146.571ZM136.779 141.33H139.447C139.867 141.33 140.228 141.27 140.529 141.151C140.83 141.026 141.06 140.852 141.219 140.631C141.379 140.403 141.458 140.134 141.458 139.821C141.458 139.372 141.273 139.02 140.904 138.764C140.54 138.509 140.035 138.381 139.387 138.381H136.779V141.33ZM154.372 138.858V136.233H165.716V138.858H154.372ZM154.372 144.312V141.688H165.716V144.312H154.372ZM182.721 131.545V149H179.559V134.622H179.457L175.374 137.23V134.332L179.712 131.545H182.721ZM193.14 149V135.909H204.194V149H201.219V138.44H196.089V149H193.14ZM213.077 149.256C211.798 149.256 210.69 148.974 209.753 148.412C208.815 147.849 208.088 147.062 207.571 146.051C207.06 145.04 206.804 143.858 206.804 142.506C206.804 141.153 207.06 139.969 207.571 138.952C208.088 137.935 208.815 137.145 209.753 136.582C210.69 136.02 211.798 135.739 213.077 135.739C214.355 135.739 215.463 136.02 216.401 136.582C217.338 137.145 218.063 137.935 218.574 138.952C219.091 139.969 219.349 141.153 219.349 142.506C219.349 143.858 219.091 145.04 218.574 146.051C218.063 147.062 217.338 147.849 216.401 148.412C215.463 148.974 214.355 149.256 213.077 149.256ZM213.094 146.784C213.787 146.784 214.366 146.594 214.832 146.213C215.298 145.827 215.645 145.31 215.872 144.662C216.105 144.014 216.222 143.293 216.222 142.497C216.222 141.696 216.105 140.972 215.872 140.324C215.645 139.67 215.298 139.151 214.832 138.764C214.366 138.378 213.787 138.185 213.094 138.185C212.384 138.185 211.793 138.378 211.321 138.764C210.855 139.151 210.506 139.67 210.273 140.324C210.045 140.972 209.932 141.696 209.932 142.497C209.932 143.293 210.045 144.014 210.273 144.662C210.506 145.31 210.855 145.827 211.321 146.213C211.793 146.594 212.384 146.784 213.094 146.784ZM220.809 152.801V146.46H221.849C222.127 146.244 222.36 145.952 222.548 145.582C222.735 145.207 222.888 144.767 223.008 144.261C223.133 143.75 223.235 143.179 223.315 142.548C223.394 141.912 223.465 141.227 223.528 140.494L223.903 135.909H233.363V146.46H235.391V152.801H232.408V149H223.843V152.801H220.809ZM225.019 146.46H230.414V138.398H226.579L226.374 140.494C226.261 141.881 226.11 143.068 225.923 144.057C225.735 145.045 225.434 145.847 225.019 146.46ZM237.695 149V135.909H248.749V149H245.774V138.44H240.643V149H237.695ZM254.896 144.824L260.137 135.909H263.308V149H260.325V140.077L255.1 149H251.921V135.909H254.896V144.824ZM272.186 149.256C270.879 149.256 269.757 148.969 268.82 148.395C267.888 147.821 267.169 147.028 266.663 146.017C266.163 145 265.913 143.83 265.913 142.506C265.913 141.176 266.169 140.003 266.68 138.986C267.192 137.963 267.913 137.168 268.845 136.599C269.783 136.026 270.891 135.739 272.169 135.739C273.232 135.739 274.172 135.935 274.99 136.327C275.814 136.713 276.47 137.261 276.959 137.972C277.447 138.676 277.726 139.5 277.794 140.443H274.845C274.726 139.812 274.442 139.287 273.993 138.866C273.55 138.44 272.956 138.227 272.212 138.227C271.581 138.227 271.027 138.398 270.55 138.739C270.072 139.074 269.7 139.557 269.433 140.188C269.172 140.818 269.041 141.574 269.041 142.455C269.041 143.347 269.172 144.114 269.433 144.756C269.695 145.392 270.061 145.884 270.533 146.23C271.01 146.571 271.57 146.741 272.212 146.741C272.666 146.741 273.072 146.656 273.43 146.486C273.794 146.31 274.098 146.057 274.342 145.727C274.587 145.398 274.754 144.997 274.845 144.526H277.794C277.72 145.452 277.447 146.273 276.976 146.989C276.504 147.699 275.862 148.256 275.05 148.659C274.237 149.057 273.283 149.256 272.186 149.256ZM280.327 149V135.909H283.413V141.193H284.538L288.475 135.909H292.191L287.342 142.335L292.242 149H288.509L284.921 144.065H283.413V149H280.327ZM297.759 149.264C296.929 149.264 296.182 149.116 295.517 148.821C294.858 148.52 294.335 148.077 293.949 147.491C293.568 146.906 293.378 146.185 293.378 145.327C293.378 144.588 293.514 143.977 293.787 143.494C294.06 143.011 294.432 142.625 294.903 142.335C295.375 142.045 295.906 141.827 296.497 141.679C297.094 141.526 297.71 141.415 298.347 141.347C299.114 141.267 299.736 141.196 300.213 141.134C300.69 141.065 301.037 140.963 301.253 140.827C301.474 140.685 301.585 140.466 301.585 140.17V140.119C301.585 139.477 301.395 138.98 301.014 138.628C300.634 138.276 300.085 138.099 299.369 138.099C298.614 138.099 298.014 138.264 297.571 138.594C297.134 138.923 296.838 139.312 296.685 139.761L293.804 139.352C294.031 138.557 294.406 137.892 294.929 137.358C295.452 136.818 296.091 136.415 296.847 136.148C297.602 135.875 298.438 135.739 299.352 135.739C299.983 135.739 300.611 135.812 301.236 135.96C301.861 136.108 302.432 136.352 302.949 136.693C303.466 137.028 303.881 137.486 304.193 138.065C304.511 138.645 304.67 139.369 304.67 140.239V149H301.705V147.202H301.602C301.415 147.565 301.151 147.906 300.81 148.224C300.474 148.537 300.051 148.79 299.54 148.983C299.034 149.17 298.44 149.264 297.759 149.264ZM298.56 146.997C299.179 146.997 299.716 146.875 300.17 146.631C300.625 146.381 300.974 146.051 301.219 145.642C301.469 145.233 301.594 144.787 301.594 144.304V142.761C301.497 142.841 301.332 142.915 301.099 142.983C300.872 143.051 300.616 143.111 300.332 143.162C300.048 143.213 299.767 143.259 299.489 143.298C299.21 143.338 298.969 143.372 298.764 143.401C298.304 143.463 297.892 143.565 297.528 143.707C297.165 143.849 296.878 144.048 296.668 144.304C296.457 144.554 296.352 144.878 296.352 145.276C296.352 145.844 296.56 146.273 296.974 146.562C297.389 146.852 297.918 146.997 298.56 146.997Z" fill="white" fill-opacity="0.9"/>
<path opacity="0.8" d="M12.642 175.455V190H10.8807V177.017H3.55114V190H1.78977V175.455H12.642ZM20.3995 190.227C19.4147 190.227 18.5505 189.993 17.8072 189.524C17.0685 189.055 16.4909 188.4 16.0742 187.557C15.6623 186.714 15.4563 185.729 15.4563 184.602C15.4563 183.466 15.6623 182.474 16.0742 181.626C16.4909 180.779 17.0685 180.121 17.8072 179.652C18.5505 179.183 19.4147 178.949 20.3995 178.949C21.3844 178.949 22.2461 179.183 22.9847 179.652C23.7281 180.121 24.3058 180.779 24.7177 181.626C25.1344 182.474 25.3427 183.466 25.3427 184.602C25.3427 185.729 25.1344 186.714 24.7177 187.557C24.3058 188.4 23.7281 189.055 22.9847 189.524C22.2461 189.993 21.3844 190.227 20.3995 190.227ZM20.3995 188.722C21.1476 188.722 21.7631 188.53 22.2461 188.146C22.729 187.763 23.0865 187.259 23.3185 186.634C23.5505 186.009 23.6665 185.331 23.6665 184.602C23.6665 183.873 23.5505 183.194 23.3185 182.564C23.0865 181.934 22.729 181.425 22.2461 181.037C21.7631 180.649 21.1476 180.455 20.3995 180.455C19.6514 180.455 19.0359 180.649 18.5529 181.037C18.07 181.425 17.7125 181.934 17.4805 182.564C17.2485 183.194 17.1325 183.873 17.1325 184.602C17.1325 185.331 17.2485 186.009 17.4805 186.634C17.7125 187.259 18.07 187.763 18.5529 188.146C19.0359 188.53 19.6514 188.722 20.3995 188.722ZM26.7365 193.125V188.438H27.6456C27.8681 188.205 28.0599 187.955 28.2209 187.685C28.3819 187.415 28.5215 187.095 28.6399 186.726C28.763 186.352 28.8672 185.897 28.9524 185.362C29.0376 184.822 29.1134 184.171 29.1797 183.409L29.549 179.091H36.4808V188.438H38.157V193.125H36.4808V190H28.4126V193.125H26.7365ZM29.549 188.438H34.8047V180.653H31.1115L30.8274 183.409C30.709 184.55 30.5623 185.547 30.3871 186.399C30.2119 187.251 29.9325 187.931 29.549 188.438ZM40.3817 190V179.091H42.0579V183.835H43.1658L47.0863 179.091H49.2454L44.842 184.347L49.3022 190H47.1431L43.5636 185.398H42.0579V190H40.3817ZM50.158 190V188.438H50.5558C50.8825 188.438 51.1547 188.374 51.3725 188.246C51.5903 188.113 51.7655 187.884 51.8981 187.557C52.0354 187.225 52.1396 186.766 52.2106 186.179C52.2863 185.587 52.3408 184.834 52.3739 183.92L52.5728 179.091H59.8455V190H58.1694V180.653H54.1637L53.9933 184.545C53.9554 185.44 53.8749 186.229 53.7518 186.911C53.6334 187.588 53.4511 188.156 53.2049 188.615C52.9634 189.074 52.6415 189.42 52.239 189.652C51.8365 189.884 51.3323 190 50.7262 190H50.158ZM68.1481 183.864V185.426H62.381V183.864H68.1481ZM63.8015 179.091V190H62.1254V179.091H63.8015ZM71.5004 190.227C70.5155 190.227 69.6514 189.993 68.908 189.524C68.1694 189.055 67.5917 188.4 67.1751 187.557C66.7631 186.714 66.5572 185.729 66.5572 184.602C66.5572 183.466 66.7631 182.474 67.1751 181.626C67.5917 180.779 68.1694 180.121 68.908 179.652C69.6514 179.183 70.5155 178.949 71.5004 178.949C72.4852 178.949 73.3469 179.183 74.0856 179.652C74.829 180.121 75.4066 180.779 75.8185 181.626C76.2352 182.474 76.4435 183.466 76.4435 184.602C76.4435 185.729 76.2352 186.714 75.8185 187.557C75.4066 188.4 74.829 189.055 74.0856 189.524C73.3469 189.993 72.4852 190.227 71.5004 190.227ZM71.5004 188.722C72.2485 188.722 72.864 188.53 73.3469 188.146C73.8299 187.763 74.1874 187.259 74.4194 186.634C74.6514 186.009 74.7674 185.331 74.7674 184.602C74.7674 183.873 74.6514 183.194 74.4194 182.564C74.1874 181.934 73.8299 181.425 73.3469 181.037C72.864 180.649 72.2485 180.455 71.5004 180.455C70.7522 180.455 70.1367 180.649 69.6538 181.037C69.1708 181.425 68.8133 181.934 68.5813 182.564C68.3493 183.194 68.2333 183.873 68.2333 184.602C68.2333 185.331 68.3493 186.009 68.5813 186.634C68.8133 187.259 69.1708 187.763 69.6538 188.146C70.1367 188.53 70.7522 188.722 71.5004 188.722ZM87.5799 179.091V190H85.9038V179.091H87.5799ZM86.9265 184.29V185.852C86.5477 185.994 86.1713 186.12 85.7972 186.229C85.4232 186.333 85.0302 186.416 84.6183 186.477C84.2063 186.534 83.7541 186.562 83.2617 186.562C82.0259 186.562 81.034 186.229 80.2859 185.561C79.5425 184.893 79.1708 183.892 79.1708 182.557V179.062H80.8469V182.557C80.8469 183.116 80.9535 183.575 81.1665 183.935C81.3796 184.295 81.6684 184.562 82.033 184.737C82.3976 184.912 82.8072 185 83.2617 185C83.9719 185 84.6135 184.936 85.1864 184.808C85.7641 184.676 86.3441 184.503 86.9265 184.29ZM93.8654 190.256C93.1741 190.256 92.5468 190.125 91.9833 189.865C91.4199 189.6 90.9724 189.219 90.641 188.722C90.3095 188.22 90.1438 187.614 90.1438 186.903C90.1438 186.278 90.2669 185.772 90.5131 185.384C90.7594 184.991 91.0884 184.683 91.5004 184.46C91.9123 184.238 92.3668 184.072 92.864 183.963C93.3659 183.849 93.8701 183.759 94.3768 183.693C95.0397 183.608 95.5771 183.544 95.989 183.501C96.4057 183.454 96.7087 183.376 96.8981 183.267C97.0922 183.158 97.1893 182.969 97.1893 182.699V182.642C97.1893 181.941 96.9975 181.397 96.614 181.009C96.2352 180.62 95.6599 180.426 94.8881 180.426C94.0879 180.426 93.4606 180.601 93.006 180.952C92.5515 181.302 92.2319 181.676 92.0472 182.074L90.4563 181.506C90.7404 180.843 91.1192 180.327 91.5927 179.957C92.0709 179.583 92.5917 179.323 93.1552 179.176C93.7234 179.025 94.2821 178.949 94.8313 178.949C95.1817 178.949 95.5842 178.991 96.0387 179.077C96.498 179.157 96.9407 179.325 97.3668 179.581C97.7977 179.837 98.1552 180.223 98.4393 180.739C98.7234 181.255 98.8654 181.946 98.8654 182.812V190H97.1893V188.523H97.104C96.9904 188.759 96.801 189.013 96.5359 189.283C96.2707 189.553 95.918 189.782 95.4776 189.972C95.0373 190.161 94.4999 190.256 93.8654 190.256ZM94.1211 188.75C94.784 188.75 95.3427 188.62 95.7972 188.359C96.2565 188.099 96.6022 187.763 96.8342 187.351C97.0709 186.939 97.1893 186.506 97.1893 186.051V184.517C97.1183 184.602 96.962 184.68 96.7205 184.751C96.4838 184.818 96.2092 184.877 95.8967 184.929C95.5889 184.976 95.2882 185.019 94.9947 185.057C94.7058 185.09 94.4715 185.118 94.2915 185.142C93.8559 185.199 93.4487 185.291 93.07 185.419C92.6959 185.542 92.3929 185.729 92.1609 185.98C91.9336 186.226 91.82 186.562 91.82 186.989C91.82 187.571 92.0354 188.011 92.4663 188.31C92.9019 188.603 93.4535 188.75 94.1211 188.75ZM103.601 187.528L108.857 179.091H110.788V190H109.112V181.562L103.885 190H101.925V179.091H103.601V187.528ZM107.749 175.455H109.311C109.311 176.222 109.046 176.849 108.516 177.337C107.985 177.824 107.266 178.068 106.357 178.068C105.462 178.068 104.749 177.824 104.219 177.337C103.693 176.849 103.43 176.222 103.43 175.455H104.993C104.993 175.824 105.095 176.148 105.298 176.428C105.507 176.707 105.859 176.847 106.357 176.847C106.854 176.847 107.209 176.707 107.422 176.428C107.64 176.148 107.749 175.824 107.749 175.455ZM112.374 180.653V179.091H121.238V180.653H117.658V190H115.982V180.653H112.374ZM127.69 190.227C126.639 190.227 125.732 189.995 124.97 189.531C124.212 189.062 123.627 188.409 123.216 187.571C122.808 186.728 122.605 185.748 122.605 184.631C122.605 183.513 122.808 182.528 123.216 181.676C123.627 180.819 124.2 180.152 124.934 179.673C125.673 179.19 126.535 178.949 127.52 178.949C128.088 178.949 128.649 179.044 129.203 179.233C129.757 179.422 130.261 179.73 130.716 180.156C131.17 180.578 131.532 181.136 131.802 181.832C132.072 182.528 132.207 183.385 132.207 184.403V185.114H123.798V183.665H130.502C130.502 183.049 130.379 182.5 130.133 182.017C129.892 181.534 129.546 181.153 129.096 180.874C128.651 180.594 128.126 180.455 127.52 180.455C126.852 180.455 126.274 180.62 125.787 180.952C125.304 181.278 124.932 181.705 124.672 182.23C124.411 182.756 124.281 183.319 124.281 183.92V184.886C124.281 185.71 124.423 186.409 124.707 186.982C124.996 187.55 125.396 187.983 125.907 188.281C126.419 188.575 127.013 188.722 127.69 188.722C128.13 188.722 128.528 188.66 128.883 188.537C129.243 188.409 129.553 188.22 129.814 187.969C130.074 187.713 130.275 187.396 130.417 187.017L132.037 187.472C131.866 188.021 131.58 188.504 131.177 188.92C130.775 189.332 130.278 189.654 129.686 189.886C129.094 190.114 128.429 190.227 127.69 190.227ZM144.899 190.199C144.065 190.199 143.315 190.033 142.647 189.702C141.98 189.37 141.445 188.916 141.042 188.338C140.64 187.76 140.42 187.102 140.382 186.364H142.086C142.153 187.022 142.451 187.566 142.981 187.997C143.516 188.423 144.155 188.636 144.899 188.636C145.495 188.636 146.026 188.497 146.49 188.217C146.958 187.938 147.325 187.554 147.591 187.067C147.86 186.574 147.995 186.018 147.995 185.398C147.995 184.763 147.856 184.197 147.576 183.7C147.302 183.198 146.923 182.803 146.44 182.514C145.957 182.225 145.405 182.079 144.785 182.074C144.34 182.069 143.883 182.138 143.414 182.28C142.946 182.417 142.56 182.595 142.257 182.812L140.609 182.614L141.49 175.455H149.047V177.017H142.967L142.456 181.307H142.541C142.839 181.07 143.213 180.874 143.663 180.717C144.113 180.561 144.582 180.483 145.069 180.483C145.959 180.483 146.752 180.696 147.449 181.122C148.149 181.544 148.699 182.121 149.096 182.855C149.499 183.589 149.7 184.427 149.7 185.369C149.7 186.297 149.492 187.126 149.075 187.855C148.663 188.58 148.095 189.152 147.37 189.574C146.646 189.991 145.822 190.199 144.899 190.199ZM159.254 194.091C158.97 194.091 158.717 194.067 158.494 194.02C158.272 193.977 158.118 193.935 158.033 193.892L158.459 192.415C158.866 192.519 159.226 192.557 159.538 192.528C159.851 192.5 160.128 192.36 160.369 192.109C160.616 191.863 160.84 191.463 161.044 190.909L161.357 190.057L157.322 179.091H159.141L162.152 187.784H162.266L165.277 179.091H167.095L162.464 191.591C162.256 192.154 161.998 192.621 161.69 192.99C161.383 193.364 161.025 193.641 160.618 193.821C160.215 194.001 159.761 194.091 159.254 194.091ZM173.349 190.227C172.326 190.227 171.445 189.986 170.707 189.503C169.968 189.02 169.4 188.355 169.002 187.507C168.604 186.66 168.406 185.691 168.406 184.602C168.406 183.494 168.609 182.517 169.016 181.669C169.428 180.817 170.001 180.152 170.735 179.673C171.474 179.19 172.335 178.949 173.32 178.949C174.087 178.949 174.779 179.091 175.394 179.375C176.01 179.659 176.514 180.057 176.907 180.568C177.3 181.08 177.544 181.676 177.638 182.358H175.962C175.835 181.861 175.55 181.42 175.11 181.037C174.674 180.649 174.087 180.455 173.349 180.455C172.695 180.455 172.122 180.625 171.63 180.966C171.142 181.302 170.761 181.778 170.487 182.393C170.217 183.004 170.082 183.722 170.082 184.545C170.082 185.388 170.214 186.122 170.479 186.747C170.749 187.372 171.128 187.857 171.616 188.203C172.108 188.549 172.686 188.722 173.349 188.722C173.784 188.722 174.18 188.646 174.535 188.494C174.89 188.343 175.191 188.125 175.437 187.841C175.683 187.557 175.858 187.216 175.962 186.818H177.638C177.544 187.462 177.309 188.042 176.935 188.558C176.566 189.07 176.076 189.477 175.465 189.78C174.859 190.078 174.154 190.227 173.349 190.227ZM179.229 180.653V179.091H188.093V180.653H184.513V190H182.837V180.653H179.229ZM190.538 194.091V179.091H192.157V180.824H192.356C192.479 180.634 192.65 180.393 192.868 180.099C193.09 179.801 193.407 179.536 193.819 179.304C194.236 179.067 194.799 178.949 195.51 178.949C196.428 178.949 197.238 179.179 197.939 179.638C198.639 180.097 199.186 180.748 199.579 181.591C199.972 182.434 200.169 183.428 200.169 184.574C200.169 185.729 199.972 186.731 199.579 187.578C199.186 188.421 198.642 189.074 197.946 189.538C197.25 189.998 196.447 190.227 195.538 190.227C194.837 190.227 194.276 190.111 193.855 189.879C193.433 189.643 193.109 189.375 192.882 189.077C192.654 188.774 192.479 188.523 192.356 188.324H192.214V194.091H190.538ZM192.186 184.545C192.186 185.369 192.306 186.096 192.548 186.726C192.789 187.351 193.142 187.841 193.606 188.196C194.07 188.546 194.638 188.722 195.311 188.722C196.011 188.722 196.596 188.537 197.065 188.168C197.538 187.794 197.894 187.292 198.13 186.662C198.372 186.027 198.493 185.322 198.493 184.545C198.493 183.778 198.374 183.087 198.137 182.472C197.905 181.851 197.553 181.361 197.079 181.001C196.61 180.637 196.021 180.455 195.311 180.455C194.629 180.455 194.056 180.627 193.592 180.973C193.128 181.314 192.778 181.792 192.541 182.408C192.304 183.018 192.186 183.731 192.186 184.545ZM207.157 190.227C206.172 190.227 205.308 189.993 204.565 189.524C203.826 189.055 203.249 188.4 202.832 187.557C202.42 186.714 202.214 185.729 202.214 184.602C202.214 183.466 202.42 182.474 202.832 181.626C203.249 180.779 203.826 180.121 204.565 179.652C205.308 179.183 206.172 178.949 207.157 178.949C208.142 178.949 209.004 179.183 209.743 179.652C210.486 180.121 211.064 180.779 211.475 181.626C211.892 182.474 212.1 183.466 212.1 184.602C212.1 185.729 211.892 186.714 211.475 187.557C211.064 188.4 210.486 189.055 209.743 189.524C209.004 189.993 208.142 190.227 207.157 190.227ZM207.157 188.722C207.905 188.722 208.521 188.53 209.004 188.146C209.487 187.763 209.844 187.259 210.076 186.634C210.308 186.009 210.424 185.331 210.424 184.602C210.424 183.873 210.308 183.194 210.076 182.564C209.844 181.934 209.487 181.425 209.004 181.037C208.521 180.649 207.905 180.455 207.157 180.455C206.409 180.455 205.794 180.649 205.311 181.037C204.828 181.425 204.47 181.934 204.238 182.564C204.006 183.194 203.89 183.873 203.89 184.602C203.89 185.331 204.006 186.009 204.238 186.634C204.47 187.259 204.828 187.763 205.311 188.146C205.794 188.53 206.409 188.722 207.157 188.722ZM216.335 187.528L221.591 179.091H223.523V190H221.847V181.562L216.619 190H214.659V179.091H216.335V187.528ZM220.483 175.455H222.045C222.045 176.222 221.78 176.849 221.25 177.337C220.72 177.824 220 178.068 219.091 178.068C218.196 178.068 217.483 177.824 216.953 177.337C216.428 176.849 216.165 176.222 216.165 175.455H217.727C217.727 175.824 217.829 176.148 218.033 176.428C218.241 176.707 218.594 176.847 219.091 176.847C219.588 176.847 219.943 176.707 220.156 176.428C220.374 176.148 220.483 175.824 220.483 175.455ZM231.025 190.227C230.002 190.227 229.121 189.986 228.382 189.503C227.644 189.02 227.076 188.355 226.678 187.507C226.28 186.66 226.081 185.691 226.081 184.602C226.081 183.494 226.285 182.517 226.692 181.669C227.104 180.817 227.677 180.152 228.411 179.673C229.15 179.19 230.011 178.949 230.996 178.949C231.763 178.949 232.454 179.091 233.07 179.375C233.685 179.659 234.19 180.057 234.583 180.568C234.976 181.08 235.22 181.676 235.314 182.358H233.638C233.51 181.861 233.226 181.42 232.786 181.037C232.35 180.649 231.763 180.455 231.025 180.455C230.371 180.455 229.798 180.625 229.306 180.966C228.818 181.302 228.437 181.778 228.162 182.393C227.892 183.004 227.757 183.722 227.757 184.545C227.757 185.388 227.89 186.122 228.155 186.747C228.425 187.372 228.804 187.857 229.292 188.203C229.784 188.549 230.362 188.722 231.025 188.722C231.46 188.722 231.855 188.646 232.211 188.494C232.566 188.343 232.866 188.125 233.113 187.841C233.359 187.557 233.534 187.216 233.638 186.818H235.314C235.22 187.462 234.985 188.042 234.611 188.558C234.242 189.07 233.752 189.477 233.141 189.78C232.535 190.078 231.829 190.227 231.025 190.227ZM236.905 180.653V179.091H245.769V180.653H242.189V190H240.513V180.653H236.905ZM248.214 190V179.091H252.674C253.848 179.091 254.781 179.356 255.472 179.886C256.164 180.417 256.509 181.117 256.509 181.989C256.509 182.652 256.313 183.165 255.92 183.53C255.527 183.89 255.022 184.134 254.407 184.261C254.809 184.318 255.2 184.46 255.579 184.688C255.962 184.915 256.28 185.227 256.531 185.625C256.781 186.018 256.907 186.501 256.907 187.074C256.907 187.633 256.765 188.132 256.481 188.572C256.197 189.013 255.79 189.361 255.259 189.616C254.729 189.872 254.094 190 253.356 190H248.214ZM249.805 188.466H253.356C253.933 188.466 254.386 188.329 254.712 188.054C255.039 187.779 255.202 187.405 255.202 186.932C255.202 186.368 255.039 185.926 254.712 185.604C254.386 185.277 253.933 185.114 253.356 185.114H249.805V188.466ZM249.805 183.665H252.674C253.124 183.665 253.51 183.603 253.832 183.48C254.154 183.352 254.4 183.172 254.57 182.94C254.746 182.704 254.833 182.424 254.833 182.102C254.833 181.643 254.641 181.283 254.258 181.023C253.874 180.758 253.346 180.625 252.674 180.625H249.805V183.665ZM1.53409 220V209.091H5.99432C7.16856 209.091 8.10133 209.356 8.79261 209.886C9.4839 210.417 9.82955 211.117 9.82955 211.989C9.82955 212.652 9.63305 213.165 9.24006 213.53C8.84706 213.89 8.3428 214.134 7.72727 214.261C8.12974 214.318 8.52036 214.46 8.89915 214.688C9.28267 214.915 9.59991 215.227 9.85085 215.625C10.1018 216.018 10.2273 216.501 10.2273 217.074C10.2273 217.633 10.0852 218.132 9.80114 218.572C9.51705 219.013 9.10985 219.361 8.57955 219.616C8.04924 219.872 7.41477 220 6.67614 220H1.53409ZM3.125 218.466H6.67614C7.25379 218.466 7.70597 218.329 8.03267 218.054C8.35938 217.779 8.52273 217.405 8.52273 216.932C8.52273 216.368 8.35938 215.926 8.03267 215.604C7.70597 215.277 7.25379 215.114 6.67614 215.114H3.125V218.466ZM3.125 213.665H5.99432C6.44413 213.665 6.83002 213.603 7.15199 213.48C7.47396 213.352 7.72017 213.172 7.89062 212.94C8.06581 212.704 8.15341 212.424 8.15341 212.102C8.15341 211.643 7.96165 211.283 7.57812 211.023C7.1946 210.758 6.66667 210.625 5.99432 210.625H3.125V213.665ZM22.8214 220.227C21.8365 220.227 20.9724 219.993 20.229 219.524C19.4904 219.055 18.9128 218.4 18.4961 217.557C18.0842 216.714 17.8782 215.729 17.8782 214.602C17.8782 213.466 18.0842 212.474 18.4961 211.626C18.9128 210.779 19.4904 210.121 20.229 209.652C20.9724 209.183 21.8365 208.949 22.8214 208.949C23.8062 208.949 24.668 209.183 25.4066 209.652C26.15 210.121 26.7276 210.779 27.1396 211.626C27.5562 212.474 27.7646 213.466 27.7646 214.602C27.7646 215.729 27.5562 216.714 27.1396 217.557C26.7276 218.4 26.15 219.055 25.4066 219.524C24.668 219.993 23.8062 220.227 22.8214 220.227ZM22.8214 218.722C23.5695 218.722 24.185 218.53 24.668 218.146C25.1509 217.763 25.5084 217.259 25.7404 216.634C25.9724 216.009 26.0884 215.331 26.0884 214.602C26.0884 213.873 25.9724 213.194 25.7404 212.564C25.5084 211.934 25.1509 211.425 24.668 211.037C24.185 210.649 23.5695 210.455 22.8214 210.455C22.0733 210.455 21.4577 210.649 20.9748 211.037C20.4918 211.425 20.1344 211.934 19.9023 212.564C19.6703 213.194 19.5543 213.873 19.5543 214.602C19.5543 215.331 19.6703 216.009 19.9023 216.634C20.1344 217.259 20.4918 217.763 20.9748 218.146C21.4577 218.53 22.0733 218.722 22.8214 218.722ZM29.1584 223.125V218.438H30.0675C30.29 218.205 30.4818 217.955 30.6428 217.685C30.8037 217.415 30.9434 217.095 31.0618 216.726C31.1849 216.352 31.2891 215.897 31.3743 215.362C31.4595 214.822 31.5353 214.171 31.6016 213.409L31.9709 209.091H38.9027V218.438H40.5788V223.125H38.9027V220H30.8345V223.125H29.1584ZM31.9709 218.438H37.2266V210.653H33.5334L33.2493 213.409C33.1309 214.55 32.9841 215.547 32.8089 216.399C32.6338 217.251 32.3544 217.931 31.9709 218.438ZM50.1048 213.778V215.341H44.082V213.778H50.1048ZM44.4798 209.091V220H42.8036V209.091H44.4798ZM51.3832 209.091V220H49.707V209.091H51.3832ZM58.8761 220.227C57.8912 220.227 57.0271 219.993 56.2837 219.524C55.5451 219.055 54.9674 218.4 54.5508 217.557C54.1388 216.714 53.9329 215.729 53.9329 214.602C53.9329 213.466 54.1388 212.474 54.5508 211.626C54.9674 210.779 55.5451 210.121 56.2837 209.652C57.0271 209.183 57.8912 208.949 58.8761 208.949C59.8609 208.949 60.7227 209.183 61.4613 209.652C62.2047 210.121 62.7823 210.779 63.1942 211.626C63.6109 212.474 63.8192 213.466 63.8192 214.602C63.8192 215.729 63.6109 216.714 63.1942 217.557C62.7823 218.4 62.2047 219.055 61.4613 219.524C60.7227 219.993 59.8609 220.227 58.8761 220.227ZM58.8761 218.722C59.6242 218.722 60.2397 218.53 60.7227 218.146C61.2056 217.763 61.5631 217.259 61.7951 216.634C62.0271 216.009 62.1431 215.331 62.1431 214.602C62.1431 213.873 62.0271 213.194 61.7951 212.564C61.5631 211.934 61.2056 211.425 60.7227 211.037C60.2397 210.649 59.6242 210.455 58.8761 210.455C58.128 210.455 57.5124 210.649 57.0295 211.037C56.5465 211.425 56.189 211.934 55.957 212.564C55.725 213.194 55.609 213.873 55.609 214.602C55.609 215.331 55.725 216.009 55.957 216.634C56.189 217.259 56.5465 217.763 57.0295 218.146C57.5124 218.53 58.128 218.722 58.8761 218.722ZM68.054 217.528L73.3097 209.091H75.2415V220H73.5653V211.562L68.3381 220H66.3778V209.091H68.054V217.528ZM72.2017 205.455H73.7642C73.7642 206.222 73.4991 206.849 72.9688 207.337C72.4384 207.824 71.7188 208.068 70.8097 208.068C69.9148 208.068 69.2022 207.824 68.6719 207.337C68.1463 206.849 67.8835 206.222 67.8835 205.455H69.446C69.446 205.824 69.5478 206.148 69.7514 206.428C69.9598 206.707 70.3125 206.847 70.8097 206.847C71.3068 206.847 71.6619 206.707 71.875 206.428C72.0928 206.148 72.2017 205.824 72.2017 205.455ZM83.9364 220V209.091H92.516V220H90.8398V210.653H85.6126V220H83.9364ZM100.009 220.227C99.024 220.227 98.1599 219.993 97.4165 219.524C96.6779 219.055 96.1003 218.4 95.6836 217.557C95.2717 216.714 95.0657 215.729 95.0657 214.602C95.0657 213.466 95.2717 212.474 95.6836 211.626C96.1003 210.779 96.6779 210.121 97.4165 209.652C98.1599 209.183 99.024 208.949 100.009 208.949C100.994 208.949 101.855 209.183 102.594 209.652C103.337 210.121 103.915 210.779 104.327 211.626C104.744 212.474 104.952 213.466 104.952 214.602C104.952 215.729 104.744 216.714 104.327 217.557C103.915 218.4 103.337 219.055 102.594 219.524C101.855 219.993 100.994 220.227 100.009 220.227ZM100.009 218.722C100.757 218.722 101.373 218.53 101.855 218.146C102.338 217.763 102.696 217.259 102.928 216.634C103.16 216.009 103.276 215.331 103.276 214.602C103.276 213.873 103.16 213.194 102.928 212.564C102.696 211.934 102.338 211.425 101.855 211.037C101.373 210.649 100.757 210.455 100.009 210.455C99.2608 210.455 98.6452 210.649 98.1623 211.037C97.6793 211.425 97.3219 211.934 97.0898 212.564C96.8578 213.194 96.7418 213.873 96.7418 214.602C96.7418 215.331 96.8578 216.009 97.0898 216.634C97.3219 217.259 97.6793 217.763 98.1623 218.146C98.6452 218.53 99.2608 218.722 100.009 218.722ZM106.346 223.125V218.438H107.255C107.478 218.205 107.669 217.955 107.83 217.685C107.991 217.415 108.131 217.095 108.249 216.726C108.372 216.352 108.477 215.897 108.562 215.362C108.647 214.822 108.723 214.171 108.789 213.409L109.158 209.091H116.09V218.438H117.766V223.125H116.09V220H108.022V223.125H106.346ZM109.158 218.438H114.414V210.653H110.721L110.437 213.409C110.318 214.55 110.172 215.547 109.996 216.399C109.821 217.251 109.542 217.931 109.158 218.438ZM119.991 220V209.091H128.571V220H126.895V210.653H121.667V220H119.991ZM133.308 217.528L138.564 209.091H140.495V220H138.819V211.562L133.592 220H131.632V209.091H133.308V217.528ZM147.997 220.227C146.974 220.227 146.094 219.986 145.355 219.503C144.616 219.02 144.048 218.355 143.651 217.507C143.253 216.66 143.054 215.691 143.054 214.602C143.054 213.494 143.258 212.517 143.665 211.669C144.077 210.817 144.65 210.152 145.384 209.673C146.122 209.19 146.984 208.949 147.969 208.949C148.736 208.949 149.427 209.091 150.043 209.375C150.658 209.659 151.162 210.057 151.555 210.568C151.948 211.08 152.192 211.676 152.287 212.358H150.611C150.483 211.861 150.199 211.42 149.759 211.037C149.323 210.649 148.736 210.455 147.997 210.455C147.344 210.455 146.771 210.625 146.278 210.966C145.791 211.302 145.41 211.778 145.135 212.393C144.865 213.004 144.73 213.722 144.73 214.545C144.73 215.388 144.863 216.122 145.128 216.747C145.398 217.372 145.777 217.857 146.264 218.203C146.757 218.549 147.334 218.722 147.997 218.722C148.433 218.722 148.828 218.646 149.183 218.494C149.538 218.343 149.839 218.125 150.085 217.841C150.331 217.557 150.507 217.216 150.611 216.818H152.287C152.192 217.462 151.958 218.042 151.584 218.558C151.214 219.07 150.724 219.477 150.114 219.78C149.508 220.078 148.802 220.227 147.997 220.227ZM154.737 220V209.091H156.413V213.835H157.521L161.442 209.091H163.601L159.197 214.347L163.658 220H161.499L157.919 215.398H156.413V220H154.737ZM169.604 220.227C168.553 220.227 167.646 219.995 166.884 219.531C166.126 219.062 165.542 218.409 165.13 217.571C164.722 216.728 164.519 215.748 164.519 214.631C164.519 213.513 164.722 212.528 165.13 211.676C165.542 210.819 166.114 210.152 166.848 209.673C167.587 209.19 168.449 208.949 169.434 208.949C170.002 208.949 170.563 209.044 171.117 209.233C171.671 209.422 172.175 209.73 172.63 210.156C173.084 210.578 173.446 211.136 173.716 211.832C173.986 212.528 174.121 213.385 174.121 214.403V215.114H165.712V213.665H172.417C172.417 213.049 172.293 212.5 172.047 212.017C171.806 211.534 171.46 211.153 171.01 210.874C170.565 210.594 170.04 210.455 169.434 210.455C168.766 210.455 168.188 210.62 167.701 210.952C167.218 211.278 166.846 211.705 166.586 212.23C166.325 212.756 166.195 213.319 166.195 213.92V214.886C166.195 215.71 166.337 216.409 166.621 216.982C166.91 217.55 167.31 217.983 167.821 218.281C168.333 218.575 168.927 218.722 169.604 218.722C170.044 218.722 170.442 218.66 170.797 218.537C171.157 218.409 171.467 218.22 171.728 217.969C171.988 217.713 172.189 217.396 172.331 217.017L173.951 217.472C173.78 218.021 173.494 218.504 173.091 218.92C172.689 219.332 172.192 219.654 171.6 219.886C171.008 220.114 170.343 220.227 169.604 220.227Z" fill="white"/>
</svg>
