<svg width="96" height="96" viewBox="0 0 96 96" fill="none" xmlns="http://www.w3.org/2000/svg">
<g opacity="0.9">
<path d="M43.3372 66.7922C29.9384 66.7922 17.0744 66.7922 10.125 66.7922C7.17944 66.7922 4.80078 64.4044 4.80078 61.4589V19.3255C4.80078 16.38 7.1553 13.9922 10.1008 13.9922C24.3269 13.9922 63.4627 13.9922 81.0845 13.9922C84.03 13.9922 86.4008 16.38 86.4008 19.3255V33.9922" stroke="white" stroke-width="2.66667"/>
<path d="M27.9162 78.0246C27.2403 78.3168 26.9292 79.1017 27.2215 79.7776C27.5137 80.4535 28.2985 80.7645 28.9744 80.4723L27.9162 78.0246ZM43.129 74.0651C40.0138 74.0651 36.1714 75.088 33.2063 76.0559C31.7027 76.5468 30.3847 77.0371 29.4423 77.4047C28.9707 77.5887 28.5921 77.7425 28.33 77.8507C28.199 77.9049 28.097 77.9477 28.0271 77.9773C27.9921 77.9921 27.9651 78.0036 27.9465 78.0116C27.9372 78.0155 27.93 78.0186 27.9249 78.0208C27.9224 78.0219 27.9204 78.0228 27.9189 78.0234C27.9182 78.0237 27.9176 78.024 27.9172 78.0242C27.9169 78.0243 27.9167 78.0244 27.9166 78.0244C27.9164 78.0245 27.9162 78.0246 28.4453 79.2484C28.9744 80.4723 28.9743 80.4723 28.9743 80.4724C28.9743 80.4724 28.9742 80.4724 28.9743 80.4724C28.9744 80.4723 28.9746 80.4722 28.9749 80.4721C28.9756 80.4718 28.9769 80.4712 28.9786 80.4705C28.9822 80.469 28.9878 80.4665 28.9955 80.4632C29.011 80.4566 29.0347 80.4465 29.0664 80.4331C29.1297 80.4063 29.2247 80.3664 29.3484 80.3153C29.5959 80.213 29.9581 80.066 30.4116 79.889C31.3194 79.5348 32.5889 79.0626 34.0338 78.591C36.9659 77.6338 40.4653 76.7318 43.129 76.7318V74.0651Z" fill="white"/>
<path d="M73.3359 79.9922H47.1953C44.9862 79.9922 43.1953 78.2013 43.1953 75.9922V29.9922C43.1953 27.783 44.9862 25.9922 47.1953 25.9922H82.3953C84.6044 25.9922 86.3953 27.783 86.3953 29.9922V38.6589" stroke="white" stroke-width="2.66667"/>
<path d="M61.5 70.1406H65.7" stroke="white" stroke-width="2.66667" stroke-linecap="round"/>
<path d="M71.6289 42.7031C71.6289 40.494 73.4198 38.7031 75.6289 38.7031H88.5356C90.7447 38.7031 92.5356 40.494 92.5356 42.7031V76.5031C92.5356 78.7123 90.7447 80.5031 88.5356 80.5031H75.6289C73.4198 80.5031 71.6289 78.7123 71.6289 76.5031V42.7031Z" stroke="white" stroke-width="2.66667"/>
<path d="M80.5859 72.8906H83.5726" stroke="white" stroke-width="2.66667" stroke-linecap="round"/>
</g>
</svg>
