<svg width="16" height="17" viewBox="0 0 16 17" fill="none" xmlns="http://www.w3.org/2000/svg">
<g clip-path="url(#clip0_1_10815)">
<path d="M8.00391 0.992188C4.55741 0.992188 1.75391 3.79619 1.75391 7.24219C1.75391 10.6882 4.55766 13.4922 8.00391 13.4922C11.4504 13.4922 14.2539 10.6882 14.2539 7.24219C14.2539 3.79619 11.4502 0.992188 8.00391 0.992188ZM8.00391 12.2424C5.24666 12.2424 3.00366 9.99944 3.00366 7.24219C3.00366 4.48544 5.24641 2.24244 8.00391 2.24244C10.7609 2.24244 13.0037 4.48544 13.0037 7.24219C13.0034 9.99944 10.7607 12.2424 8.00391 12.2424Z" fill="white"/>
<path d="M6.35619 5.32644C6.58772 5.08099 6.86445 4.88253 7.17119 4.74194C7.48429 4.5981 7.82513 4.5247 8.16969 4.52694C8.60694 4.52694 9.00819 4.63119 9.37394 4.83969C9.73448 5.04359 10.0417 5.32988 10.2704 5.67519L11.1614 5.00894C10.8229 4.54679 10.3831 4.16829 9.87569 3.90244C9.36019 3.62894 8.79119 3.49219 8.16944 3.49219C7.65719 3.49219 7.17569 3.59119 6.72519 3.78969C6.28483 3.98012 5.88492 4.25293 5.54694 4.59344C5.20945 4.93598 4.94002 5.33945 4.75294 5.78244C4.55819 6.23594 4.46094 6.72319 4.46094 7.24244C4.46094 7.76119 4.55819 8.24794 4.75294 8.70269C4.93981 9.14549 5.20928 9.54866 5.54694 9.89069C5.88494 10.2314 6.28484 10.5046 6.72519 10.6954C7.17594 10.8929 7.65744 10.9922 8.16944 10.9922C8.79119 10.9922 9.35994 10.8554 9.87569 10.5817C10.3834 10.3162 10.8233 9.93767 11.1614 9.47519L10.2704 8.80994C10.0413 9.15472 9.73417 9.4407 9.37394 9.64469C9.00819 9.85294 8.60694 9.95719 8.16969 9.95719C7.82512 9.95954 7.48425 9.88615 7.17119 9.74219C6.8644 9.60169 6.58766 9.40321 6.35619 9.15769C6.12419 8.91269 5.93969 8.62494 5.80294 8.29744C5.66619 7.96994 5.59794 7.61769 5.59794 7.24244C5.59794 6.86644 5.66619 6.51469 5.80294 6.18694C5.93969 5.85919 6.12419 5.57244 6.35619 5.32644" fill="white"/>
</g>
<defs>
<clipPath id="clip0_1_10815">
<rect width="16" height="16" fill="white" transform="translate(0 0.5)"/>
</clipPath>
</defs>
</svg>
