<svg width="96" height="96" viewBox="0 0 96 96" fill="none" xmlns="http://www.w3.org/2000/svg">
<path opacity="0.9" d="M78.72 48V81.0667C78.72 84.0122 76.3322 86.4 73.3866 86.4H22.6133C19.6678 86.4 17.28 84.0122 17.28 81.0667V48M48 86.4V28.8M48 28.8H30.72C28.1739 28.8 25.7321 27.7886 23.9318 25.9883C22.1314 24.1879 21.12 21.7461 21.12 19.2C21.12 16.654 22.1314 14.2122 23.9318 12.4118C25.7321 10.6115 28.1739 9.60004 30.72 9.60004C44.16 9.60004 48 28.8 48 28.8ZM48 28.8H65.28C67.8261 28.8 70.2679 27.7886 72.0682 25.9883C73.8686 24.1879 74.88 21.7461 74.88 19.2C74.88 16.654 73.8686 14.2122 72.0682 12.4118C70.2679 10.6115 67.8261 9.60004 65.28 9.60004C51.84 9.60004 48 28.8 48 28.8ZM14.9333 48H81.0666C84.0122 48 86.4 45.6122 86.4 42.6667V34.1334C86.4 31.1879 84.0122 28.8 81.0666 28.8H14.9333C11.9878 28.8 9.59998 31.1878 9.59998 34.1334V42.6667C9.59998 45.6122 11.9878 48 14.9333 48Z" stroke="white" stroke-width="2.66667" stroke-linecap="round" stroke-linejoin="round"/>
</svg>
