<svg width="221" height="46" viewBox="0 0 221 46" fill="none" xmlns="http://www.w3.org/2000/svg">
<g clip-path="url(#clip0_1_7159)">
<g opacity="0.8" clip-path="url(#clip1_1_7159)">
<path d="M107.69 38.9593H104.636V20.6387H107.69V38.9593ZM106.163 17.5853C105.094 17.5853 104.178 16.6693 104.178 15.6005C104.178 14.5318 105.094 13.6158 106.163 13.6158C107.232 13.6158 108.148 14.5318 108.148 15.6005C108.148 16.6693 107.232 17.5853 106.163 17.5853ZM124.636 39.4173C116.545 39.4173 111.354 33.6158 111.354 24.4555C111.354 15.2952 116.545 9.49368 124.636 9.49368C132.728 9.49368 137.919 15.2952 137.919 24.4555C137.919 33.6158 132.728 39.4173 124.636 39.4173ZM135.018 24.4555C135.018 16.8219 131.048 11.9364 124.636 11.9364C118.224 11.9364 114.254 16.8219 114.254 24.4555C114.254 32.0891 118.224 36.8219 124.636 36.8219C131.048 36.8219 135.018 32.0891 135.018 24.4555ZM151.354 39.4173C145.247 39.4173 140.972 36.0586 140.667 31.0204H143.415C143.72 34.5318 146.926 36.8219 151.506 36.8219C155.934 36.8219 158.987 34.3792 158.987 31.1731C158.987 28.425 157.155 26.8983 152.728 25.8296L149.064 24.9135C143.72 23.5395 141.277 21.2494 141.277 17.4326C141.277 12.6998 145.552 9.34101 151.201 9.34101C156.85 9.34101 160.972 12.6998 161.125 17.2799H158.682C158.529 14.0738 155.629 11.9364 151.506 11.9364C147.537 11.9364 144.483 14.2265 144.483 17.4326C144.483 19.8754 146.316 21.4021 150.59 22.4708L153.796 23.2341C159.598 24.7609 162.041 26.8983 162.041 31.0204C161.888 36.0586 157.919 39.4173 151.354 39.4173ZM92.4224 31.4784C91.8117 32.8525 91.0484 34.2265 90.285 35.2952C89.2163 36.9746 88.3003 38.0433 87.5369 38.654C86.4682 39.7227 85.2468 40.1807 84.0255 40.1807C83.1094 40.1807 82.0407 39.8754 80.6667 39.4173C79.4453 38.9593 78.2239 38.654 77.1552 38.654C76.0865 38.654 74.8652 38.9593 73.4911 39.4173C72.2697 39.8754 71.201 40.1807 70.285 40.1807C69.0636 40.1807 67.8423 39.7227 66.6209 38.5013C65.8575 37.8906 64.9415 36.6693 63.7201 34.9899C62.4987 33.3105 61.43 31.1731 60.6667 28.883C59.9033 26.5929 59.4453 24.1502 59.4453 21.8601C59.4453 19.112 60.056 16.8219 61.1247 14.9899C62.0407 13.4631 63.2621 12.2418 64.7888 11.3257C66.3155 10.4097 67.9949 9.95169 69.6743 9.95169C70.5903 9.95169 71.9644 10.257 73.4911 10.8677C75.0178 11.4784 76.0865 11.7838 76.5445 11.7838C76.8499 11.7838 77.9186 11.4784 79.9033 10.7151C81.7354 10.1044 83.2621 9.79902 84.4835 9.95169C87.8423 10.257 90.4377 11.4784 92.1171 13.9212C89.0636 15.7532 87.6896 18.3486 87.6896 21.5547C87.6896 24.1502 88.6056 26.2876 90.4377 27.967C91.201 28.7303 92.1171 29.341 93.1858 29.799C92.8804 30.257 92.5751 30.8677 92.4224 31.4784ZM84.6361 1.09673C84.6361 3.08147 83.8728 4.91353 82.4987 6.74559C80.8194 8.73032 78.682 9.95169 76.3919 9.79902C76.3919 9.49368 76.3919 9.34101 76.3919 9.03566C76.3919 7.05093 77.1552 5.0662 78.682 3.38681C79.4453 2.47078 80.3613 1.86009 81.43 1.2494C82.4987 0.638718 83.5674 0.333374 84.6361 0.333374C84.6361 0.638718 84.6361 0.791389 84.6361 1.09673Z" fill="white"/>
</g>
</g>
<defs>
<clipPath id="clip0_1_7159">
<rect width="102.443" height="45.3333" fill="white" transform="translate(59.4453 0.333374)"/>
</clipPath>
<clipPath id="clip1_1_7159">
<rect width="102.443" height="40" fill="white" transform="translate(59.4453 0.333374)"/>
</clipPath>
</defs>
</svg>
