<svg width="197" height="26" viewBox="0 0 197 26" fill="none" xmlns="http://www.w3.org/2000/svg">
<g id="Frame 4588">
<g id="Group">
<path id="Vector" opacity="0.8" d="M119.089 15.3283L124.364 25.2239H127.813L122.538 15.1343L119.089 15.3283Z" fill="white"/>
<path id="Vector_2" opacity="0.8" d="M129.441 5.04449H137.151V25.2236H140.397V5.04449H148.106V2.91016H129.441V5.04449Z" fill="white"/>
<path id="Vector_3" opacity="0.8" d="M56.1948 25.6119C61.064 25.6119 64.1072 23.4775 64.3101 20.179C64.513 16.8805 62.687 15.1342 57.615 13.1939C53.3545 11.6417 51.9343 10.2835 51.9343 8.34319C51.9343 6.20885 53.9631 4.85064 57.0064 4.85064C59.4409 4.85064 61.4697 5.2387 62.687 5.82079L63.7014 3.88049C61.8755 3.10437 59.4409 2.71631 56.3977 2.71631C51.5286 2.71631 48.6882 5.2387 48.6882 8.53722C48.6882 11.8357 50.717 13.582 55.3833 15.3283C59.6438 16.8805 60.8611 17.8507 60.8611 19.985C60.8611 22.1193 58.8323 23.6716 55.1804 23.4775C53.3545 23.4775 50.9199 22.7014 49.4998 21.9253L48.4854 23.8656C49.7026 24.4477 52.1372 25.6119 56.1948 25.6119Z" fill="white"/>
<g id="Group_2" opacity="0.8">
<path id="Vector_4" d="M90.691 3.10443H85.619L79.1268 23.0895L72.6346 3.10443H67.5625V25.2239H69.9971V4.8507L76.6922 25.2239H80.9527L87.4449 4.8507V25.2239H87.8506L90.691 17.6567V3.10443Z" fill="white"/>
</g>
<g id="Group_3" opacity="0.8">
<path id="Vector_5" d="M125.582 4.4624C124.162 3.49225 122.133 2.91016 119.496 2.91016H111.178V16.4923L114.424 24.8356V5.04449H119.293C123.148 5.04449 124.365 6.79076 124.365 9.31315C124.365 12.0296 123.148 13.9699 118.684 13.9699H115.438V15.9102H120.713C124.974 15.9102 127.408 12.8057 127.408 9.50718C127.611 7.17882 126.8 5.43255 125.582 4.4624Z" fill="white"/>
</g>
<path id="Vector_6" opacity="0.8" d="M197 3.10443H193.551L186.653 21.9254L179.552 3.10443H175.9L184.218 25.2239H188.682L197 3.10443Z" fill="white"/>
<path id="Vector_7" opacity="0.8" d="M154.191 4.85076H162.104V25.2239H166.364V4.85076H174.277V3.10449H154.191V4.85076Z" fill="white"/>
<g id="Group_4" opacity="0.8">
<g id="Group_5">
<g id="Group_6">
<path id="Vector_8" d="M28.4014 16.6865H32.8648V20.5672C32.0533 20.9552 30.4302 21.3433 28.8072 21.3433C23.938 21.3433 22.315 19.0149 22.315 14.1642C22.315 9.50743 23.938 6.98503 28.8072 6.98503C31.4446 6.98503 33.0677 7.76116 34.285 9.3134L37.5311 6.40294C35.5023 3.68652 31.8504 2.71637 28.6043 2.71637C21.0977 2.71637 17.0401 6.59697 17.0401 14.1642C17.0401 21.7313 20.692 25.6119 28.6043 25.6119C32.2562 25.6119 35.7051 24.6418 37.734 23.4776V12.6119H28.4014V16.6865Z" fill="white"/>
<path id="Vector_9" d="M5.27491 2.91016H0V25.2236H16.4334V20.955H5.27491V2.91016Z" fill="white"/>
</g>
</g>
</g>
<g id="Group_7">
<path id="Vector_10" d="M103.876 10.8657L106.919 9.11942L103.47 0L101.441 4.4627L103.876 10.8657Z" fill="#1999D6"/>
<path id="Vector_11" d="M106.916 9.11914L103.873 10.8654L105.293 14.1639L109.757 16.6863L106.916 9.11914Z" fill="#30BEC2"/>
<path id="Vector_12" d="M101.641 16.8804L103.467 18.2386L101.641 19.4028L109.959 25.8058L108.539 22.1192L101.641 16.8804Z" fill="#97C742"/>
<path id="Vector_13" d="M101.639 16.8804L93.93 22.3132L92.5098 25.8058L101.639 19.4028L99.8135 18.2386L101.639 16.8804Z" fill="#F68524"/>
<path id="Vector_14" d="M101.639 16.8804L99.8135 18.2386L101.639 19.4028L103.465 18.2386L101.639 16.8804Z" fill="#9D7230"/>
<path id="Vector_15" d="M109.754 16.6865L105.291 14.1641L108.537 22.1193L113.203 25.8059L109.754 16.6865Z" fill="#71C596"/>
<path id="Vector_16" d="M108.542 22.1196L109.962 25.8062H113.208L108.542 22.1196Z" fill="#38B24B"/>
<path id="Vector_17" d="M97.1778 14.9403L92.3086 17.8508L89.0625 25.806L93.9317 22.3135L97.1778 14.9403Z" fill="#F15C2A"/>
<path id="Vector_18" d="M89.0625 25.806H92.5115L93.9317 22.3135L89.0625 25.806Z" fill="#EF3B25"/>
<path id="Vector_19" d="M101.438 4.4627L99.6121 0L96.1631 8.73136L99.0035 10.2836L101.438 4.4627Z" fill="#6E449B"/>
<path id="Vector_20" d="M96.1653 8.73145L92.3106 17.8509L97.1797 14.9404L99.0057 10.2837L96.1653 8.73145Z" fill="#ED174F"/>
<path id="Vector_21" d="M103.465 0H99.6104L101.436 4.4627L103.465 0Z" fill="#3C2E46"/>
</g>
</g>
</g>
</svg>
