<svg width="342" height="46" viewBox="0 0 342 46" fill="none" xmlns="http://www.w3.org/2000/svg">
<path opacity="0.8" d="M198.456 26.105L205.489 39.2991H210.088L203.054 25.8463L198.456 26.105Z" fill="white"/>
<path opacity="0.8" d="M212.26 12.3874H222.54V39.2929H226.868V12.3874H237.147V9.54163H212.26V12.3874Z" fill="white"/>
<path opacity="0.8" d="M114.594 39.8191C121.087 39.8191 125.144 36.9733 125.415 32.5753C125.685 28.1772 123.251 25.8489 116.488 23.2618C110.807 21.1921 108.914 19.3812 108.914 16.7941C108.914 13.9484 111.619 12.1374 115.676 12.1374C118.922 12.1374 121.628 12.6548 123.251 13.4309L124.603 10.8439C122.169 9.80904 118.922 9.29163 114.865 9.29163C108.373 9.29163 104.586 12.6548 104.586 17.0528C104.586 21.4509 107.291 23.7792 113.512 26.1076C119.193 28.1772 120.816 29.4708 120.816 32.3166C120.816 35.1623 118.111 37.232 113.242 36.9733C110.807 36.9733 107.561 35.9384 105.668 34.9036L104.315 37.4907C105.938 38.2668 109.184 39.8191 114.594 39.8191Z" fill="white"/>
<g opacity="0.8">
<path d="M160.59 9.80725H153.828L145.172 36.4541L136.515 9.80725H129.753V39.2999H132.999V12.1356L141.925 39.2999H147.606L156.262 12.1356V39.2999H156.803L160.59 29.2103V9.80725Z" fill="white"/>
</g>
<g opacity="0.8">
<path d="M207.115 11.6113C205.221 10.3177 202.516 9.54163 199 9.54163H187.909V27.6511L192.237 38.7755V12.3874H198.729C203.869 12.3874 205.492 14.7158 205.492 18.079C205.492 21.7009 203.869 24.2879 197.918 24.2879H193.589V26.875H200.623C206.303 26.875 209.549 22.7357 209.549 18.3377C209.82 15.2332 208.738 12.9048 207.115 11.6113Z" fill="white"/>
</g>
<path opacity="0.8" d="M302.335 9.79944H297.736L288.539 34.894L279.071 9.79944H274.202L285.293 39.292H291.244L302.335 9.79944Z" fill="white"/>
<path opacity="0.8" d="M245.26 12.1278H255.81V39.292H261.491V12.1278H272.041V9.79944H245.26V12.1278Z" fill="white"/>
<g opacity="0.8">
<path d="M77.5416 27.9185H83.4928V33.0927C82.4108 33.6101 80.2467 34.1275 78.0827 34.1275C71.5905 34.1275 69.4264 31.023 69.4264 24.5553C69.4264 18.3464 71.5905 14.9832 78.0827 14.9832C81.5993 14.9832 83.7633 16.018 85.3864 18.0877L89.7145 14.2071C87.0094 10.5852 82.1403 9.29163 77.8121 9.29163C67.8033 9.29163 62.3932 14.4658 62.3932 24.5553C62.3932 34.6449 67.2623 39.8191 77.8121 39.8191C82.6813 39.8191 87.2799 38.5255 89.985 36.9733V22.4857H77.5416V27.9185Z" fill="white"/>
<path d="M46.7076 9.54944H39.6744V39.3007H61.5856V33.6092H46.7076V9.54944Z" fill="white"/>
</g>
<path d="M178.171 20.1542L182.228 17.8259L177.63 5.66663L174.924 11.6169L178.171 20.1542Z" fill="#1999D6"/>
<path d="M182.228 17.8229L178.171 20.1512L180.064 24.5493L186.015 27.9125L182.228 17.8229Z" fill="#30BEC2"/>
<path d="M175.19 28.1744L177.625 29.9854L175.19 31.5376L186.281 40.075L184.387 35.1595L175.19 28.1744Z" fill="#97C742"/>
<path d="M175.187 28.1744L164.908 35.4182L163.014 40.075L175.187 31.5376L172.753 29.9854L175.187 28.1744Z" fill="#F68524"/>
<path d="M175.187 28.1744L172.753 29.9854L175.187 31.5376L177.622 29.9854L175.187 28.1744Z" fill="#9D7230"/>
<path d="M186.008 27.9126L180.057 24.5494L184.385 35.1564L190.607 40.0719L186.008 27.9126Z" fill="#71C596"/>
<path d="M184.393 35.1588L186.287 40.0742H190.615L184.393 35.1588Z" fill="#38B24B"/>
<path d="M169.241 25.5807L162.749 29.4613L158.421 40.0683L164.913 35.4116L169.241 25.5807Z" fill="#F15C2A"/>
<path d="M158.421 40.0734H163.019L164.913 35.4166L158.421 40.0734Z" fill="#EF3B25"/>
<path d="M174.922 11.6169L172.488 5.66663L167.889 17.3084L171.676 19.3781L174.922 11.6169Z" fill="#6E449B"/>
<path d="M167.892 17.3151L162.753 29.4743L169.245 25.5937L171.679 19.3847L167.892 17.3151Z" fill="#ED174F"/>
<path d="M177.623 5.66663H172.483L174.918 11.6169L177.623 5.66663Z" fill="#3C2E46"/>
</svg>
