<svg width="287" height="46" viewBox="0 0 287 46" fill="none" xmlns="http://www.w3.org/2000/svg">
<g clip-path="url(#clip0_1_7178)">
<path d="M148.258 15.6459V31.5665L135.383 22.6617L148.258 15.6459Z" fill="#244A9A"/>
<path d="M122.641 15.6459V31.5665L135.377 22.6617L122.641 15.6459Z" fill="#95A948"/>
<path d="M135.379 -0.268188L118.766 8.7715H135.379V-0.268188Z" fill="#FFDE14"/>
<path d="M135.383 -0.268188L151.996 8.7715H135.383V-0.268188Z" fill="#F0C3C0"/>
<path d="M135.377 22.6693L118.902 34.0026H135.377V22.6693Z" fill="#D3D80E"/>
<path d="M135.383 22.6693L151.996 34.0026H135.383V22.6693Z" fill="#2DAFE6"/>
<path d="M118.902 34.0052H135.377V45.0687L118.902 34.0052Z" fill="#FBEF82"/>
<path d="M151.996 34.0052H135.383V45.0687L151.996 34.0052Z" fill="#AFDFF9"/>
<path d="M118.902 8.77087H135.516V17.8106L118.902 8.77087Z" fill="#F18825"/>
<path d="M151.996 8.77087H135.383V17.8106L151.996 8.77087Z" fill="#E94287"/>
<path opacity="0.8" d="M151.99 34.001V8.77087L135.377 17.8106L118.902 8.77087V34.001L122.64 36.5645V15.6518L135.377 22.6677L148.252 15.6518V36.5645L151.99 34.001Z" fill="white"/>
<path opacity="0.8" d="M200.863 24.8321C202.248 24.2924 203.494 23.4829 204.463 22.2686C205.57 20.9194 206.124 19.1655 206.124 17.2766C206.124 16.0623 205.847 14.848 205.432 13.9036C205.017 12.8242 204.324 12.0147 203.494 11.2051C202.663 10.5305 201.555 9.85595 200.31 9.45118C199.064 9.04642 197.679 8.9115 196.156 8.9115H185.496V36.7051H189.234V12.5544H196.156C198.233 12.5544 199.756 12.9591 200.725 13.7686C201.694 14.5782 202.248 15.7924 202.248 17.2766C202.248 18.8956 201.694 19.975 200.725 20.7845C199.617 21.594 198.094 21.9988 196.156 21.9988H191.588V25.5067H197.125L202.386 36.5702H206.539L200.863 24.8321Z" fill="white"/>
<path opacity="0.8" d="M209.309 9.04431V12.5522H217.892V36.703H221.63V12.5522H230.214V9.04431H209.309Z" fill="white"/>
<path opacity="0.8" d="M169.992 9.04431H166.808L155.871 36.703H159.886L163.347 28.0681H173.73L177.191 36.703H181.068L169.992 9.04431ZM164.593 24.83L168.469 14.9808L172.346 24.83H164.593Z" fill="white"/>
<path opacity="0.8" d="M113.224 25.9043C112.809 24.9599 112.255 24.1503 111.563 23.4757C110.871 22.8011 110.04 22.2615 109.071 21.7218C108.102 21.317 106.994 20.9122 105.887 20.7773L100.764 20.1027C100.211 19.9678 99.6569 19.9678 99.1031 19.698C98.6878 19.563 98.2724 19.2932 97.8571 19.0234C97.5802 18.7535 97.3033 18.3488 97.0265 17.944C96.888 17.5392 96.7496 16.9995 96.7496 16.3249C96.7496 15.6503 96.888 14.9757 97.1649 14.571C97.4418 14.0313 97.8571 13.6265 98.2724 13.2218C98.8262 12.817 99.5184 12.4122 100.211 12.1424C101.041 11.8726 101.872 11.8726 102.703 11.8726C103.81 11.8726 104.918 12.0075 105.748 12.4122C106.579 12.6821 107.271 13.2218 107.825 13.7615C108.24 14.1662 108.517 14.571 108.656 15.1107C108.794 15.5154 109.071 16.0551 109.071 16.7297L109.209 17.4043H112.947L112.809 16.4599C112.671 15.3805 112.532 14.4361 112.117 13.6265C111.701 12.817 111.148 12.1424 110.594 11.4678C109.763 10.5234 108.517 9.71383 107.133 9.17415C105.748 8.63446 104.225 8.36462 102.703 8.36462C101.318 8.36462 100.072 8.63447 98.8262 9.03923C97.5802 9.44399 96.4727 10.1186 95.5036 10.9281C94.8114 11.6027 94.1192 12.4122 93.5654 13.2218C93.0116 14.1662 92.7347 15.2456 92.7347 16.4599C92.7347 17.5392 92.8732 18.6186 93.2885 19.4281C93.7038 20.2376 94.2576 21.0472 94.9498 21.7218C95.642 22.3964 96.4727 22.8011 97.3033 23.2059C98.134 23.6107 99.1031 23.7456 100.211 23.8805L105.195 24.5551C105.887 24.69 106.579 24.8249 107.133 25.0948C107.687 25.3646 108.102 25.6345 108.517 26.0392C108.933 26.444 109.209 26.8488 109.348 27.2535C109.486 27.6583 109.625 28.198 109.625 28.7376C109.625 29.4122 109.486 30.0869 109.209 30.4916C108.933 31.0313 108.656 31.4361 108.24 31.8408C107.548 32.3805 106.856 32.7853 105.887 33.0551C104.918 33.3249 103.81 33.4599 102.703 33.4599C101.734 33.4599 100.626 33.3249 99.7953 32.9202C98.8262 32.6503 98.134 32.1107 97.4418 31.571C97.0265 31.1662 96.6111 30.6265 96.3342 29.9519C96.0574 29.4122 95.7805 28.7376 95.7805 28.063L95.642 27.2535H91.7656L91.9041 28.198C92.0425 29.2773 92.3194 30.3567 92.7347 31.3011C93.1501 32.2456 93.8423 33.0551 94.5345 33.8646C95.5036 34.944 96.7496 35.6186 98.134 36.1583C99.5184 36.698 101.041 36.9678 102.703 36.9678C104.364 36.9678 105.887 36.698 107.271 36.2932C108.656 35.8884 109.902 35.0789 110.871 34.1345C111.563 33.4599 112.117 32.6503 112.532 31.8408C112.947 30.8964 113.224 29.817 113.224 28.6027C113.778 27.7932 113.64 26.8488 113.224 25.9043Z" fill="white"/>
<path opacity="0.8" d="M267.036 36.8401H269.528L280.465 8.9115H277.557L268.282 32.9274L258.729 8.9115H237.824V11.475H246.823V36.8401H249.453V11.475H256.929L267.036 36.8401Z" fill="white"/>
<path opacity="0.8" d="M148.258 15.6518V36.5645L151.996 34.001V8.77087L135.383 17.8106V22.6677L148.258 15.6518Z" fill="white"/>
<path opacity="0.8" d="M8.14822 21.9998C6.34846 21.4601 5.93314 19.976 5.93314 18.7617V18.3569C5.93314 16.0633 7.17912 14.849 9.80954 14.849H11.0555C13.1322 14.849 14.3782 15.6585 14.3782 17.8172C14.3782 18.3569 14.1013 18.7617 13.4091 18.7617C12.7168 18.7617 12.44 18.3569 12.44 17.8172C12.44 17.0077 11.8862 16.603 11.0555 16.603H9.80954C8.42511 16.603 7.7329 17.1426 7.7329 18.3569V18.7617C7.7329 19.5712 8.28667 20.1109 8.84044 20.2458L12.44 21.595C13.9628 22.1347 14.7935 23.2141 14.7935 24.968V25.6427C14.7935 27.9363 13.5475 29.2855 10.9171 29.2855H8.97888C6.90224 29.2855 5.65625 28.476 5.65625 26.3173C5.65625 25.7776 5.93314 25.3728 6.62535 25.3728C7.31757 25.3728 7.59445 25.7776 7.59445 26.3173C7.59445 27.1268 8.14822 27.5315 8.97888 27.5315H11.0555C12.44 27.5315 13.1322 26.8569 13.1322 25.6427V24.968C13.1322 24.1585 12.7168 23.6188 12.1631 23.349L8.14822 21.9998Z" fill="white"/>
<path opacity="0.8" d="M21.5786 18.7552C23.6553 18.7552 24.9012 19.9695 24.9012 21.8584V28.1997C24.9012 28.7394 24.6244 29.1441 23.9321 29.1441H20.1942C18.256 29.1441 17.1484 28.3346 17.1484 26.4457V24.9616C17.1484 23.0727 18.3944 22.2632 20.1942 22.2632H23.1015V21.8584C23.1015 20.914 22.5477 20.5092 21.7171 20.5092H19.0866C18.5329 20.5092 18.1175 20.2394 18.1175 19.6997C18.1175 19.16 18.5329 18.8902 19.0866 18.8902H21.5786V18.7552ZM22.963 27.3902V23.8822H20.0557C19.2251 23.8822 18.8098 24.287 18.8098 24.9616V26.4457C18.8098 26.9854 19.2251 27.5251 20.0557 27.5251H22.963V27.3902Z" fill="white"/>
<path opacity="0.8" d="M37.6359 22.3981C37.6359 21.1838 37.0821 20.5092 35.6977 20.5092H34.5901V28.4695C34.5901 29.0092 34.3132 29.414 33.621 29.414C32.9288 29.414 32.6519 29.0092 32.6519 28.4695V20.5092H29.6062V28.4695C29.6062 29.0092 29.3293 29.414 28.6371 29.414C27.9449 29.414 27.668 29.0092 27.668 28.4695V19.6997C27.668 19.16 27.9449 18.7552 28.6371 18.7552H35.6977C38.1896 18.7552 39.4356 20.1045 39.4356 22.3981V28.4695C39.4356 29.0092 39.1587 29.414 38.4665 29.414C37.7743 29.414 37.4974 29.0092 37.4974 28.4695V22.3981H37.6359Z" fill="white"/>
<path opacity="0.8" d="M45.12 29.2755C43.1818 29.2755 42.0742 28.6009 42.0742 26.8469C42.0742 26.3072 42.3511 25.9024 43.0433 25.9024C43.7355 25.9024 43.874 26.3072 44.0124 26.8469C44.0124 27.2516 44.4277 27.6564 45.2584 27.6564H46.9197C47.8888 27.6564 48.1657 27.1167 48.1657 26.577V25.9024C48.1657 25.3628 47.8888 25.2278 47.4735 24.958L44.2893 24.1485C43.0433 23.7437 42.4895 22.9342 42.4895 21.7199V21.1802C42.4895 19.2913 43.5971 18.4818 45.5353 18.4818H46.6428C48.581 18.4818 49.6886 19.1564 49.6886 20.9104C49.6886 21.4501 49.5501 21.8548 48.7195 21.8548C48.0273 21.8548 47.8888 21.4501 47.7504 20.9104C47.7504 20.5056 47.3351 20.1009 46.6428 20.1009H45.5353C44.5662 20.1009 44.2893 20.6405 44.2893 21.1802V21.7199C44.2893 22.1247 44.5662 22.3945 44.9815 22.6643L48.1657 23.4739C49.4117 23.8786 50.1039 24.5532 50.1039 25.9024V26.577C50.1039 28.4659 48.9964 29.2755 47.0582 29.2755H45.12Z" fill="white"/>
<path opacity="0.8" d="M54.1144 25.4977C54.1144 26.712 54.6682 27.3866 56.0526 27.3866H58.5446V19.4263C58.5446 18.8866 58.8215 18.4818 59.5137 18.4818C60.2059 18.4818 60.4828 18.8866 60.4828 19.4263V28.1961C60.4828 28.7358 60.2059 29.1405 59.5137 29.1405H56.1911C53.5607 29.1405 52.4531 27.7913 52.4531 25.4977V19.4263C52.4531 18.8866 52.73 18.4818 53.4222 18.4818C54.1144 18.4818 54.3913 18.8866 54.3913 19.4263V25.4977H54.1144Z" fill="white"/>
<path opacity="0.8" d="M69.6184 22.3981C69.6184 21.1838 69.0646 20.5092 67.6802 20.5092H65.1882V28.4695C65.1882 29.0092 64.9113 29.414 64.2191 29.414C63.5269 29.414 63.25 29.0092 63.25 28.4695V19.6997C63.25 19.16 63.5269 18.7552 64.2191 18.7552H67.5417C70.0337 18.7552 71.2797 20.1045 71.2797 22.3981V28.4695C71.2797 29.0092 71.0028 29.414 70.3106 29.414C69.6184 29.414 69.3415 29.0092 69.3415 28.4695V22.3981H69.6184Z" fill="white"/>
<path opacity="0.8" d="M82.2194 30.2214C82.2194 32.3801 80.9734 34.1341 78.343 34.1341H76.1279C75.7126 34.1341 75.1588 33.8643 75.1588 33.3246C75.1588 32.7849 75.5741 32.515 76.1279 32.515H78.4814C79.8658 32.515 80.5581 31.5706 80.5581 30.3563V29.2769H78.0661C75.5741 29.2769 74.3281 27.9277 74.3281 25.6341V22.8008C74.3281 20.5071 75.5741 18.8881 78.2045 18.8881H81.5272C82.2194 18.8881 82.4963 19.2928 82.4963 19.8325V30.2214H82.2194ZM78.0661 20.3722C76.6817 20.3722 76.1279 21.3166 76.1279 22.5309V25.3642C76.1279 26.5785 76.6817 27.2531 78.0661 27.2531H80.5581V20.3722H78.0661Z" fill="white"/>
</g>
<defs>
<clipPath id="clip0_1_7178">
<rect width="276" height="45.3333" fill="white" transform="translate(5.5 0.333374)"/>
</clipPath>
</defs>
</svg>
