<svg width="207" height="34" viewBox="0 0 207 34" fill="none" xmlns="http://www.w3.org/2000/svg">
<g id="Frame" clip-path="url(#clip0_1_11739)">
<path id="Vector" d="M107.067 11.4873V23.4278L97.4102 16.7492L107.067 11.4873Z" fill="#244A9A"/>
<path id="Vector_2" d="M87.8555 11.4873V23.4278L97.4081 16.7492L87.8555 11.4873Z" fill="#95A948"/>
<path id="Vector_3" d="M97.4091 -0.453125L84.9492 6.32664H97.4091V-0.453125Z" fill="#FFDE14"/>
<path id="Vector_4" d="M97.4102 -0.453125L109.87 6.32664H97.4102V-0.453125Z" fill="#F0C3C0"/>
<path id="Vector_5" d="M97.4068 16.749L85.0508 25.249H97.4068V16.749Z" fill="#D3D80E"/>
<path id="Vector_6" d="M97.4102 16.749L109.87 25.249H97.4102V16.749Z" fill="#2DAFE6"/>
<path id="Vector_7" d="M85.0508 25.249H97.4068V33.5466L85.0508 25.249Z" fill="#FBEF82"/>
<path id="Vector_8" d="M109.87 25.249H97.4102V33.5466L109.87 25.249Z" fill="#AFDFF9"/>
<path id="Vector_9" d="M85.0508 6.32617H97.5107V13.1059L85.0508 6.32617Z" fill="#F18825"/>
<path id="Vector_10" d="M109.87 6.32617H97.4102V13.1059L109.87 6.32617Z" fill="#E94287"/>
<path id="Vector_11" opacity="0.8" d="M109.867 25.2488V6.32617L97.4068 13.1059L85.0508 6.32617V25.2488L87.8542 27.1714V11.4869L97.4068 16.7488L107.063 11.4869V27.1714L109.867 25.2488Z" fill="white"/>
<path id="Vector_12" opacity="0.8" d="M146.521 18.3682C147.56 17.9634 148.494 17.3563 149.221 16.4456C150.052 15.4337 150.467 14.1182 150.467 12.7015C150.467 11.7908 150.259 10.8801 149.948 10.1718C149.636 9.36226 149.117 8.75511 148.494 8.14797C147.871 7.64202 147.041 7.13607 146.106 6.8325C145.172 6.52893 144.133 6.42773 142.991 6.42773H134.996V27.273H137.8V9.15987H142.991C144.549 9.15987 145.691 9.46345 146.418 10.0706C147.144 10.6777 147.56 11.5884 147.56 12.7015C147.56 13.9158 147.144 14.7253 146.418 15.3325C145.587 15.9396 144.445 16.2432 142.991 16.2432H139.565V18.8742H143.718L147.664 27.1718H150.779L146.521 18.3682Z" fill="white"/>
<path id="Vector_13" opacity="0.8" d="M152.856 6.52881V9.15976H159.294V27.2729H162.098V9.15976H168.535V6.52881H152.856Z" fill="white"/>
<path id="Vector_14" opacity="0.8" d="M123.368 6.52881H120.98L112.777 27.2729H115.788L118.384 20.7967H126.172L128.768 27.2729H131.675L123.368 6.52881ZM119.319 18.3681L122.226 10.9812L125.133 18.3681H119.319Z" fill="white"/>
<path id="Vector_15" opacity="0.8" d="M80.7932 19.1777C80.4817 18.4694 80.0664 17.8622 79.5472 17.3563C79.0281 16.8503 78.4051 16.4456 77.6783 16.0408C76.9514 15.7372 76.1208 15.4337 75.2901 15.3325L71.4483 14.8265C71.033 14.7253 70.6177 14.7253 70.2023 14.523C69.8908 14.4218 69.5793 14.2194 69.2678 14.017C69.0602 13.8146 68.8525 13.511 68.6448 13.2075C68.541 12.9039 68.4372 12.4991 68.4372 11.9932C68.4372 11.4872 68.541 10.9813 68.7487 10.6777C68.9563 10.2729 69.2678 9.96938 69.5793 9.66581C69.9947 9.36223 70.5138 9.05867 71.033 8.85629C71.656 8.65391 72.279 8.6539 72.902 8.6539C73.7326 8.6539 74.5633 8.75509 75.1863 9.05866C75.8093 9.26104 76.3284 9.66581 76.7438 10.0706C77.0553 10.3741 77.2629 10.6777 77.3668 11.0825C77.4706 11.386 77.6783 11.7908 77.6783 12.2968L77.7821 12.8027H80.5856L80.4817 12.0944C80.3779 11.2849 80.2741 10.5765 79.9626 9.96938C79.6511 9.36224 79.2357 8.85629 78.8204 8.35033C78.1974 7.642 77.2629 7.03485 76.2246 6.63009C75.1863 6.22533 74.0441 6.02295 72.902 6.02295C71.8636 6.02295 70.9292 6.22533 69.9947 6.5289C69.0602 6.83247 68.2295 7.33843 67.5027 7.94557C66.9835 8.45152 66.4644 9.05866 66.049 9.66581C65.6337 10.3741 65.426 11.1837 65.426 12.0944C65.426 12.9039 65.5299 13.7134 65.8414 14.3206C66.1529 14.9277 66.5682 15.5349 67.0874 16.0408C67.6065 16.5468 68.2295 16.8503 68.8525 17.1539C69.4755 17.4575 70.2023 17.5587 71.033 17.6599L74.7709 18.1658C75.2901 18.267 75.8093 18.3682 76.2246 18.5706C76.6399 18.773 76.9514 18.9753 77.2629 19.2789C77.5744 19.5825 77.7821 19.886 77.8859 20.1896C77.9897 20.4932 78.0936 20.898 78.0936 21.3027C78.0936 21.8087 77.9898 22.3146 77.7821 22.6182C77.5744 23.023 77.3668 23.3265 77.0553 23.6301C76.5361 24.0349 76.0169 24.3384 75.2901 24.5408C74.5633 24.7432 73.7326 24.8444 72.902 24.8444C72.1751 24.8444 71.3445 24.7432 70.7215 24.4396C69.9947 24.2372 69.4755 23.8325 68.9563 23.4277C68.6448 23.1241 68.3333 22.7194 68.1257 22.2134C67.918 21.8087 67.7103 21.3027 67.7103 20.7968L67.6065 20.1896H64.6992L64.803 20.8979C64.9069 21.7075 65.1145 22.517 65.426 23.2253C65.7375 23.9337 66.2567 24.5408 66.7759 25.148C67.5027 25.9575 68.4372 26.4634 69.4755 26.8682C70.5138 27.273 71.656 27.4753 72.902 27.4753C74.148 27.4753 75.2901 27.273 76.3284 26.9694C77.3668 26.6658 78.3012 26.0587 79.0281 25.3503C79.5472 24.8444 79.9626 24.2372 80.2741 23.6301C80.5856 22.9218 80.7932 22.1122 80.7932 21.2015C81.2086 20.5944 81.1047 19.886 80.7932 19.1777Z" fill="white"/>
<path id="Vector_16" opacity="0.8" d="M196.152 27.3742H198.021L206.223 6.42773H204.043L197.086 24.4396L189.922 6.42773H174.243V8.35036H180.992V27.3742H182.965V8.35036H188.572L196.152 27.3742Z" fill="white"/>
<path id="Vector_17" opacity="0.8" d="M107.067 11.4869V27.1714L109.87 25.2488V6.32617L97.4102 13.1059V16.7488L107.067 11.4869Z" fill="white"/>
<path id="Vector_18" opacity="0.8" d="M1.98714 16.243C0.637325 15.8382 0.325828 14.7251 0.325828 13.8144V13.5108C0.325828 11.7906 1.26032 10.8799 3.23313 10.8799H4.16762C5.72511 10.8799 6.6596 11.487 6.6596 13.1061C6.6596 13.5108 6.45193 13.8144 5.93277 13.8144C5.41361 13.8144 5.20594 13.5108 5.20594 13.1061C5.20594 12.4989 4.79062 12.1954 4.16762 12.1954H3.23313C2.19481 12.1954 1.67565 12.6001 1.67565 13.5108V13.8144C1.67565 14.4215 2.09098 14.8263 2.50631 14.9275L5.20594 15.9394C6.3481 16.3442 6.97109 17.1537 6.97109 18.4692V18.9751C6.97109 20.6954 6.0366 21.7073 4.06379 21.7073H2.61014C1.05265 21.7073 0.118164 21.1001 0.118164 19.4811C0.118164 19.0763 0.325828 18.7727 0.84499 18.7727C1.36415 18.7727 1.57182 19.0763 1.57182 19.4811C1.57182 20.0882 1.98714 20.3918 2.61014 20.3918H4.16762C5.20594 20.3918 5.72511 19.8858 5.72511 18.9751V18.4692C5.72511 17.862 5.41361 17.4573 4.99828 17.2549L1.98714 16.243Z" fill="white"/>
<path id="Vector_19" opacity="0.8" d="M12.057 13.8145C13.6145 13.8145 14.549 14.7252 14.549 16.1418V20.8978C14.549 21.3025 14.3413 21.6061 13.8222 21.6061H11.0187C9.56503 21.6061 8.73438 20.999 8.73438 19.5823V18.4692C8.73438 17.0526 9.66887 16.4454 11.0187 16.4454H13.1992V16.1418C13.1992 15.4335 12.7838 15.1299 12.1608 15.1299H10.188C9.7727 15.1299 9.4612 14.9276 9.4612 14.5228C9.4612 14.118 9.7727 13.9156 10.188 13.9156H12.057V13.8145ZM13.0953 20.2906V17.6597H10.9149C10.2919 17.6597 9.98036 17.9633 9.98036 18.4692V19.5823C9.98036 19.9871 10.2919 20.3918 10.9149 20.3918H13.0953V20.2906Z" fill="white"/>
<path id="Vector_20" opacity="0.8" d="M24.1009 16.5466C24.1009 15.6359 23.6856 15.1299 22.6473 15.1299H21.8166V21.1002C21.8166 21.5049 21.6089 21.8085 21.0898 21.8085C20.5706 21.8085 20.363 21.5049 20.363 21.1002V15.1299H18.0787V21.1002C18.0787 21.5049 17.871 21.8085 17.3518 21.8085C16.8327 21.8085 16.625 21.5049 16.625 21.1002V14.5228C16.625 14.118 16.8327 13.8145 17.3518 13.8145H22.6473C24.5163 13.8145 25.4507 14.8264 25.4507 16.5466V21.1002C25.4507 21.5049 25.2431 21.8085 24.7239 21.8085C24.2048 21.8085 23.9971 21.5049 23.9971 21.1002V16.5466H24.1009Z" fill="white"/>
<path id="Vector_21" opacity="0.8" d="M29.714 21.7075C28.2603 21.7075 27.4297 21.2016 27.4297 19.8861C27.4297 19.4813 27.6373 19.1778 28.1565 19.1778C28.6757 19.1778 28.7795 19.4813 28.8833 19.8861C28.8833 20.1897 29.1948 20.4933 29.8178 20.4933H31.0638C31.7906 20.4933 31.9983 20.0885 31.9983 19.6837V19.1778C31.9983 18.773 31.7906 18.6718 31.4791 18.4695L29.091 17.8623C28.1565 17.5587 27.7412 16.9516 27.7412 16.0409V15.6361C27.7412 14.2194 28.5718 13.6123 30.0255 13.6123H30.8561C32.3098 13.6123 33.1405 14.1183 33.1405 15.4337C33.1405 15.8385 33.0366 16.1421 32.4136 16.1421C31.8945 16.1421 31.7906 15.8385 31.6868 15.4337C31.6868 15.1302 31.3753 14.8266 30.8561 14.8266H30.0255C29.2987 14.8266 29.091 15.2314 29.091 15.6361V16.0409C29.091 16.3444 29.2987 16.5468 29.6102 16.7492L31.9983 17.3563C32.9328 17.6599 33.452 18.1659 33.452 19.1778V19.6837C33.452 21.1004 32.6213 21.7075 31.1676 21.7075H29.714Z" fill="white"/>
<path id="Vector_22" opacity="0.8" d="M36.4608 18.8742C36.4608 19.7849 36.8762 20.2909 37.9145 20.2909H39.7835V14.3206C39.7835 13.9159 39.9911 13.6123 40.5103 13.6123C41.0294 13.6123 41.2371 13.9159 41.2371 14.3206V20.898C41.2371 21.3028 41.0294 21.6064 40.5103 21.6064H38.0183C36.0455 21.6064 35.2148 20.5944 35.2148 18.8742V14.3206C35.2148 13.9159 35.4225 13.6123 35.9417 13.6123C36.4608 13.6123 36.6685 13.9159 36.6685 14.3206V18.8742H36.4608Z" fill="white"/>
<path id="Vector_23" opacity="0.8" d="M48.0888 16.5466C48.0888 15.6359 47.6735 15.1299 46.6351 15.1299H44.7661V21.1002C44.7661 21.5049 44.5585 21.8085 44.0393 21.8085C43.5202 21.8085 43.3125 21.5049 43.3125 21.1002V14.5228C43.3125 14.118 43.5202 13.8145 44.0393 13.8145H46.5313C48.4003 13.8145 49.3348 14.8264 49.3348 16.5466V21.1002C49.3348 21.5049 49.1271 21.8085 48.6079 21.8085C48.0888 21.8085 47.8811 21.5049 47.8811 21.1002V16.5466H48.0888Z" fill="white"/>
<path id="Vector_24" opacity="0.8" d="M57.5395 22.416C57.5395 24.0351 56.605 25.3505 54.6322 25.3505H52.9709C52.6594 25.3505 52.2441 25.1482 52.2441 24.7434C52.2441 24.3386 52.5556 24.1363 52.9709 24.1363H54.7361C55.7744 24.1363 56.2935 23.4279 56.2935 22.5172V21.7077H54.4246C52.5556 21.7077 51.6211 20.6958 51.6211 18.9755V16.8505C51.6211 15.1303 52.5556 13.916 54.5284 13.916H57.0204C57.5395 13.916 57.7472 14.2196 57.7472 14.6243V22.416H57.5395ZM54.4246 15.0291C53.3862 15.0291 52.9709 15.7374 52.9709 16.6482V18.7732C52.9709 19.6839 53.3862 20.1898 54.4246 20.1898H56.2935V15.0291H54.4246Z" fill="white"/>
</g>
<defs>
<clipPath id="clip0_1_11739">
<rect width="207" height="34" fill="white"/>
</clipPath>
</defs>
</svg>
