<svg width="24" height="24" viewBox="0 0 24 24" fill="none" xmlns="http://www.w3.org/2000/svg">
<g opacity="0.8">
<path fill-rule="evenodd" clip-rule="evenodd" d="M22.3448 11.5862C22.3448 17.2991 17.7129 21.931 12 21.931C6.28705 21.931 1.65515 17.2991 1.65515 11.5862C1.65515 5.87323 6.28705 1.24133 12 1.24133C17.7129 1.24133 22.3448 5.87323 22.3448 11.5862ZM12.3707 8.8784C11.3646 9.29651 9.35343 10.1629 6.33791 11.4767C5.84825 11.6715 5.59136 11.862 5.56808 12.0482C5.52843 12.3637 5.92325 12.4879 6.45946 12.656C6.53274 12.6793 6.6086 12.7025 6.68619 12.7284C7.21463 12.9 7.92498 13.1008 8.29394 13.1086C8.62929 13.1155 9.00343 12.9775 9.41636 12.6948C12.2336 10.7922 13.6879 9.83099 13.7793 9.8103C13.8439 9.79564 13.9336 9.77668 13.9939 9.83099C14.0543 9.88444 14.0483 9.98616 14.0422 10.0137C14.0026 10.1801 12.456 11.6189 11.6543 12.3637C11.4043 12.5956 11.2276 12.7603 11.1914 12.7982C11.1103 12.8819 11.0276 12.962 10.9483 13.0387C10.4569 13.5112 10.0896 13.8663 10.9689 14.4456C11.3914 14.7241 11.7293 14.9543 12.0664 15.1836C12.4345 15.4344 12.8017 15.6844 13.2776 15.9965C13.3983 16.0758 13.5138 16.1577 13.6267 16.2379C14.0552 16.5439 14.4405 16.8181 14.9164 16.775C15.1922 16.7491 15.4784 16.4896 15.6233 15.7146C15.9655 13.8818 16.6396 9.91288 16.7957 8.27668C16.8052 8.14083 16.7994 8.00434 16.7784 7.86978C16.7659 7.7611 16.713 7.6611 16.6302 7.58961C16.5069 7.48875 16.3155 7.4672 16.2293 7.46892C15.8405 7.47582 15.2439 7.68357 12.3707 8.8784Z" fill="white"/>
</g>
</svg>
