<svg width="48" height="49" viewBox="0 0 48 49" fill="none" xmlns="http://www.w3.org/2000/svg">
<path d="M18.8038 0.657598C19.0733 0.357362 19.4281 0.14657 19.8207 0.0534591C20.2133 -0.0396522 20.6251 -0.0106361 21.0008 0.136621C21.3764 0.283878 21.6981 0.542343 21.9227 0.877393C22.1473 1.21244 22.264 1.60807 22.2573 2.01129C22.2573 4.54017 22.2574 7.66408 22.168 9.44917C22.168 9.8437 22.3249 10.2221 22.604 10.501C22.8832 10.78 23.2618 10.9367 23.6566 10.9367L27.9884 11.0111C28.3492 10.9868 28.7099 11.0594 29.0331 11.2216C29.3563 11.3837 29.6301 11.6294 29.8261 11.933C30.0221 12.2367 30.1332 12.5873 30.1477 12.9484C30.1622 13.3095 30.0797 13.6679 29.9087 13.9863C22.0638 27.9844 21.3047 29.7843 16.7943 37.7875C16.5664 38.172 16.2176 38.4704 15.8022 38.6359C15.3868 38.8015 14.9282 38.8249 14.4981 38.7026C14.0679 38.5803 13.6904 38.3191 13.4245 37.9598C13.1586 37.6004 13.0192 37.1632 13.0281 36.7164C13.0281 33.7413 12.9239 30.5727 12.8495 29.2785C12.85 29.0796 12.7979 28.8841 12.6986 28.7117C12.5993 28.5393 12.4562 28.3962 12.2838 28.2967C11.868 28.0586 11.4063 27.9115 10.9292 27.8653C9.78302 27.7761 8.29445 27.9992 6.92495 27.8653C5.24285 27.8653 4.58788 25.9761 5.55546 24.3844C6.10623 23.358 15.3801 6.04262 18.8038 0.657598Z" fill="url(#paint0_linear_1_11669)"/>
<path d="M18.8038 0.657598C19.0733 0.357362 19.4281 0.14657 19.8207 0.0534591C20.2133 -0.0396522 20.6251 -0.0106361 21.0008 0.136621C21.3764 0.283878 21.6981 0.542343 21.9227 0.877393C22.1473 1.21244 22.264 1.60807 22.2573 2.01129C22.2573 4.54017 22.2574 7.66408 22.168 9.44917C22.168 9.8437 22.3249 10.2221 22.604 10.501C22.8832 10.78 23.2618 10.9367 23.6566 10.9367L27.9884 11.0111C28.3492 10.9868 28.7099 11.0594 29.0331 11.2216C29.3563 11.3837 29.6301 11.6294 29.8261 11.933C30.0221 12.2367 30.1332 12.5873 30.1477 12.9484C30.1622 13.3095 30.0797 13.6679 29.9087 13.9863C22.0638 27.9844 21.3047 29.7843 16.7943 37.7875C16.5664 38.172 16.2176 38.4704 15.8022 38.6359C15.3868 38.8015 14.9282 38.8249 14.4981 38.7026C14.0679 38.5803 13.6904 38.3191 13.4245 37.9598C13.1586 37.6004 13.0192 37.1632 13.0281 36.7164C13.0281 33.7413 12.9239 30.5727 12.8495 29.2785C12.85 29.0796 12.7979 28.8841 12.6986 28.7117C12.5993 28.5393 12.4562 28.3962 12.2838 28.2967C11.868 28.0586 11.4063 27.9115 10.9292 27.8653C9.78302 27.7761 8.29445 27.9992 6.92495 27.8653C5.24285 27.8653 4.58788 25.9761 5.55546 24.3844C6.10623 23.358 15.3801 6.04262 18.8038 0.657598Z" fill="url(#paint1_linear_1_11669)"/>
<path fill-rule="evenodd" clip-rule="evenodd" d="M29.8776 14.0019C30.0486 13.6835 30.1311 13.3251 30.1166 12.964C30.1021 12.6029 29.9911 12.2523 29.7951 11.9487C29.5991 11.645 29.3252 11.3993 29.0021 11.2372C28.6789 11.0751 28.3181 11.0024 27.9573 11.0267L23.6256 10.9524C23.2308 10.9524 22.8522 10.7956 22.573 10.5167C22.2938 10.2377 22.137 9.85932 22.137 9.46479C22.137 7.64995 22.2263 4.52604 22.2263 2.02692C22.233 1.6237 22.1162 1.22807 21.8917 0.893018C21.6671 0.557968 21.3454 0.299504 20.9697 0.152246C20.594 0.00498938 20.1823 -0.0240274 19.7896 0.0690838C19.397 0.162195 19.0422 0.372987 18.7728 0.673222C16.2273 4.6748 10.4218 15.311 7.37025 20.9042C6.32824 22.8232 5.61373 24.1472 5.44999 24.4149C4.48241 26.0066 5.13738 27.8215 6.81948 27.8958C7.50869 27.9329 8.1994 27.9329 8.88861 27.8958C9.53292 27.852 10.1795 27.852 10.8238 27.8958C11.3008 27.942 11.7626 28.0891 12.1784 28.3272C12.3508 28.4267 12.4938 28.5698 12.5931 28.7422C12.6925 28.9146 12.7445 29.1101 12.744 29.309C12.744 30.6479 12.9673 33.8759 12.9227 36.7469C12.877 37.2145 12.9955 37.6835 13.2581 38.0732C13.5206 38.463 13.9107 38.7493 14.3614 38.883C14.8121 39.0168 15.2953 38.9895 15.7282 38.8061C16.161 38.6226 16.5164 38.2943 16.7334 37.8775C18.6239 34.5155 19.8446 32.2396 21.1992 29.7107C23.1492 26.1554 25.3077 22.1389 29.8776 14.0019ZM27.9871 13.1391L23.6405 13.0647C23.1752 13.057 22.716 12.9577 22.2891 12.7726C21.8623 12.5875 21.4761 12.3201 21.1526 11.9858C20.8291 11.6515 20.5747 11.2568 20.4039 10.8243C20.2331 10.3917 20.1493 9.92974 20.1572 9.46479C20.1572 7.75408 20.2316 4.85331 20.2316 2.41369C18.5048 5.24008 15.617 10.3871 12.9971 15.1473L9.40961 21.7075C8.30806 23.7306 7.534 25.1736 7.35537 25.4562C7.27878 25.5731 7.22802 25.7049 7.20651 25.843C7.71262 25.843 8.26341 25.843 8.9035 25.843C9.61731 25.798 10.3332 25.798 11.0471 25.843C11.8212 25.9149 12.5717 26.148 13.2502 26.5273C13.7313 26.7942 14.135 27.1812 14.422 27.6505C14.7089 28.1197 14.8694 28.6553 14.8876 29.2049C14.962 30.5437 15.096 33.7866 15.0513 36.7469C16.8674 33.504 18.0285 31.2726 19.4129 28.8033L20.2316 27.3157C21.9584 23.9835 24.087 20.1158 27.9871 13.1391Z" fill="url(#paint2_linear_1_11669)"/>
<path d="M40.8773 27.5566C41.8598 27.1252 43.0953 28.5235 42.3659 29.6839C41.6365 30.8442 40.4159 32.4359 39.6865 33.5069C39.4697 33.8265 39.3858 34.2178 39.4525 34.5981C39.5191 34.9785 39.7312 35.318 40.0437 35.5449L42.1277 37.0325C42.3411 37.155 42.5184 37.3316 42.6416 37.5445C42.7649 37.7573 42.8298 37.9989 42.8298 38.2449C42.8298 38.4908 42.7649 38.7324 42.6416 38.9452C42.5184 39.1581 42.3411 39.3347 42.1277 39.4572C32.3031 44.3662 31.1867 45.11 25.5598 47.9364C25.2761 48.024 24.9726 48.0248 24.6884 47.9387C24.4042 47.8526 24.1523 47.6835 23.965 47.4532C23.7777 47.2229 23.6637 46.9418 23.6375 46.6462C23.6113 46.3506 23.6743 46.0539 23.8182 45.7943C24.8751 44.3067 25.9468 42.5068 26.4678 41.6291C26.5737 41.4623 26.63 41.2688 26.63 41.0712C26.63 40.8737 26.5737 40.6802 26.4678 40.5134C26.3388 40.2802 26.1672 40.0733 25.9617 39.9035C25.3365 39.4126 24.4731 38.9514 23.6544 38.4159C22.8357 37.8804 23.0441 36.4226 24.2052 35.887C24.9346 35.4854 36.8433 29.2227 40.8773 27.5566Z" fill="url(#paint3_linear_1_11669)"/>
<path d="M40.8773 27.5566C41.8598 27.1252 43.0953 28.5235 42.3659 29.6839C41.6365 30.8442 40.4159 32.4359 39.6865 33.5069C39.4697 33.8265 39.3858 34.2178 39.4525 34.5981C39.5191 34.9785 39.7312 35.318 40.0437 35.5449L42.1277 37.0325C42.3411 37.155 42.5184 37.3316 42.6416 37.5445C42.7649 37.7573 42.8298 37.9989 42.8298 38.2449C42.8298 38.4908 42.7649 38.7324 42.6416 38.9452C42.5184 39.1581 42.3411 39.3347 42.1277 39.4572C32.3031 44.3662 31.1867 45.11 25.5598 47.9364C25.2761 48.024 24.9726 48.0248 24.6884 47.9387C24.4042 47.8526 24.1523 47.6835 23.965 47.4532C23.7777 47.2229 23.6637 46.9418 23.6375 46.6462C23.6113 46.3506 23.6743 46.0539 23.8182 45.7943C24.8751 44.3067 25.9468 42.5068 26.4678 41.6291C26.5737 41.4623 26.63 41.2688 26.63 41.0712C26.63 40.8737 26.5737 40.6802 26.4678 40.5134C26.3388 40.2802 26.1672 40.0733 25.9617 39.9035C25.3365 39.4126 24.4731 38.9514 23.6544 38.4159C22.8357 37.8804 23.0441 36.4226 24.2052 35.887C24.9346 35.4854 36.8433 29.2227 40.8773 27.5566Z" fill="url(#paint4_linear_1_11669)"/>
<path fill-rule="evenodd" clip-rule="evenodd" d="M42.0979 39.4532C42.3112 39.3307 42.4885 39.1541 42.6118 38.9412C42.735 38.7284 42.7999 38.4868 42.7999 38.2409C42.7999 37.9949 42.735 37.7534 42.6118 37.5405C42.4885 37.3276 42.3112 37.151 42.0979 37.0285L40.0139 35.5409C39.706 35.3096 39.4999 34.968 39.4389 34.5879C39.3778 34.2079 39.4665 33.819 39.6864 33.5029C40.4158 32.4616 41.4727 30.9294 42.3212 29.6501C43.1697 28.3708 41.8597 27.0915 40.8326 27.5229C37.8554 28.8171 30.5018 32.6104 26.6315 34.6037L24.1902 35.8533C23.0291 36.3888 22.7016 37.683 23.6394 38.3822C24.0116 38.6648 24.4284 38.9177 24.8303 39.1706C25.2155 39.3929 25.5883 39.6362 25.9467 39.8995C26.1522 40.0693 26.3239 40.2762 26.4528 40.5094C26.5588 40.6762 26.615 40.8697 26.615 41.0673C26.615 41.2648 26.5588 41.4583 26.4528 41.6251C25.9318 42.5028 24.8601 44.2581 23.8032 45.7903C23.6593 46.0499 23.5963 46.3466 23.6225 46.6422C23.6487 46.9378 23.7627 47.2189 23.95 47.4492C24.1373 47.6796 24.3892 47.8486 24.6734 47.9347C24.9576 48.0209 25.2611 48.02 25.5448 47.9324C27.8968 46.7424 29.4598 45.9242 31.2163 44.9573C33.6129 43.7226 36.3817 42.2796 42.0979 39.4532ZM31.3949 42.8747C33.5236 41.759 36.1286 40.4202 40.6688 38.1442L39.0016 36.9541C38.3131 36.4605 37.8451 35.7173 37.6976 34.8833C37.5502 34.0494 37.735 33.1909 38.2127 32.4914L39.999 29.8881C37.9001 30.8848 34.9378 32.3724 32.169 33.7856L27.7033 36.1062L25.3215 37.326L25.8574 37.6533C26.2933 37.9068 26.7111 38.1901 27.1078 38.5012C27.4829 38.7984 27.8006 39.1613 28.0456 39.5723C28.3224 40.0191 28.4691 40.5343 28.4691 41.0598C28.4691 41.5854 28.3224 42.1005 28.0456 42.5474C27.6437 43.2168 26.8994 44.4366 26.0807 45.6862L30.4125 43.4399L31.3949 42.8747Z" fill="url(#paint5_linear_1_11669)"/>
<defs>
<linearGradient id="paint0_linear_1_11669" x1="26.4254" y1="4.7038" x2="11.6437" y2="29.5849" gradientUnits="userSpaceOnUse">
<stop stop-color="#FFFD54"/>
<stop offset="1" stop-color="#FFBC00"/>
</linearGradient>
<linearGradient id="paint1_linear_1_11669" x1="2.90578" y1="13.7483" x2="20.84" y2="20.7481" gradientUnits="userSpaceOnUse">
<stop stop-color="white"/>
<stop offset="1" stop-color="white" stop-opacity="0"/>
</linearGradient>
<linearGradient id="paint2_linear_1_11669" x1="10.4963" y1="27.9256" x2="22.2468" y2="13.9345" gradientUnits="userSpaceOnUse">
<stop stop-color="#F5BE41" stop-opacity="0.8"/>
<stop offset="0.56" stop-color="#F8D147" stop-opacity="0.56"/>
<stop offset="1" stop-color="#FFFD54" stop-opacity="0"/>
</linearGradient>
<linearGradient id="paint3_linear_1_11669" x1="1824.7" y1="1433.31" x2="1584.53" y2="1325.22" gradientUnits="userSpaceOnUse">
<stop stop-color="#FFFD54"/>
<stop offset="1" stop-color="#FFBC00"/>
</linearGradient>
<linearGradient id="paint4_linear_1_11669" x1="1596.93" y1="1501.46" x2="1709.54" y2="1338.39" gradientUnits="userSpaceOnUse">
<stop stop-color="white"/>
<stop offset="1" stop-color="white" stop-opacity="0"/>
</linearGradient>
<linearGradient id="paint5_linear_1_11669" x1="25.0834" y1="39.8549" x2="33.9843" y2="37.5015" gradientUnits="userSpaceOnUse">
<stop stop-color="#F5BE41" stop-opacity="0.8"/>
<stop offset="1" stop-color="#FFFD54" stop-opacity="0"/>
</linearGradient>
</defs>
</svg>
